<?xml version="1.0" encoding="utf-8"?>
<!-- Generator: Adobe Illustrator 18.0.0, SVG Export Plug-In . SVG Version: 6.00 Build 0)  -->
<!DOCTYPE svg PUBLIC "-//W3C//DTD SVG 1.1//EN" "http://www.w3.org/Graphics/SVG/1.1/DTD/svg11.dtd">
<svg version="1.1" id="Artboard_2" xmlns="http://www.w3.org/2000/svg" xmlns:xlink="http://www.w3.org/1999/xlink" x="0px" y="0px"
	 viewBox="360 90 1200 900" enable-background="new 360 90 1200 900" xml:space="preserve">
<rect x="360" y="90" fill="#262E4F" width="1200" height="900"/>
<path opacity="0.75" fill="#5A5DA8" enable-background="new    " d="M867.2,244.8c-143.3,0-259.4,116.1-259.4,259.4
	c0,45.8,11.9,88.7,32.7,126.1l-43.3,112.9l98-44.8c45.8,40.5,106,65.3,172,65.3c143.3,0,259.4-116.1,259.4-259.4
	C1126.7,360.9,1010.5,244.8,867.2,244.8z"/>
<path opacity="0.75" fill="#5A5DA8" enable-background="new    " d="M1322.7,814.8l-43.3-112.9c20.8-37.3,32.7-80.3,32.7-126.1
	c0-143.3-116.1-259.4-259.4-259.4S793.4,432.5,793.4,575.8s116.2,259.4,259.4,259.4c66,0,126.2-24.7,172-65.3L1322.7,814.8z"/>
<path fill="#262E4F" d="M1047.4,545.8c-2.6,4.5-9.6,12.8-9.6,12.8s2-9.7,2.7-14.5c1.3-9.5-0.4-18.7-3.4-27.6
	c-6.9-19.7-21.1-32.1-40-39.4c-6.5-2.5-13.1-5.2-19.7-9.8v159.1c0.2,19.8-8.7,33.4-25.5,41.8c-24.2,12-48.1,10.6-70.2-5.2
	c-11.1-7.9-17.6-19.2-17.4-33.2c0.2-12.5,6-22.8,15.6-30.5c15-11.9,32.1-16.1,51.1-13.3c8.2,1.2,15.7,3.9,23.4,8V404.7
	c23.5-5.1,24.6,12.4,36.6,24.2c5,4.9,12.4,10.5,17.3,14.3c12.6,10,25,19.4,34.1,32.7c7,10.2,11.6,21.4,13,33.7
	C1057,522.5,1053.8,534.6,1047.4,545.8z"/>
</svg>
