<?xml version="1.0" encoding="utf-8"?>
<!-- Generator: Adobe Illustrator 18.0.0, SVG Export Plug-In . SVG Version: 6.00 Build 0)  -->
<!DOCTYPE svg PUBLIC "-//W3C//DTD SVG 1.1//EN" "http://www.w3.org/Graphics/SVG/1.1/DTD/svg11.dtd">
<svg version="1.1" id="Layer_1" xmlns="http://www.w3.org/2000/svg" xmlns:xlink="http://www.w3.org/1999/xlink" x="0px" y="0px"
	 viewBox="0 0 300 300" enable-background="new 0 0 300 300" xml:space="preserve">
<rect fill="#333333" width="300" height="300"/>
<path fill="#FFFFFF" d="M119.5,62.3c0.2,0,0.3,0.2,0.2,0.4c-0.2,0.2-0.3,0.2-0.5,0c2.2-0.4,4.9-0.6,8-0.4c3.1,0.2,6,0.2,8.7,0
	c0.7-1.2,1.1-2.7,1.1-4.3c0.1-1.7,0.2-3.2,0.7-4.8c0.4,0.2,0.7,0.7,0.8,1.2c0.2,0.6,0.2,1.2,0.2,1.9c-0.1,0.7-0.1,1.5-0.2,2.2
	c-0.1,0.7,0,1.5,0.1,2.2c0.2,0.9,0.7,1.4,1.3,1.4c0.6,0,1.4,0,2.3,0c3.7-0.1,7.3-0.2,10.8-0.2c3.5-0.1,6.8-0.2,10.2-0.2
	c3.3-0.1,6.7-0.2,10-0.2c3.4-0.1,6.9-0.1,10.6-0.2c0.4,0,0.7-0.1,0.6-0.3s0.1-0.4,0.3-0.6c0.8,0,1.5,0.2,1.8,0.4
	c0.7-0.3,1.7-0.5,2.8-0.5c1.2,0,2.3,0.1,3.7,0.2c1.3,0.2,2.6,0.2,3.9,0.4c1.3,0.2,2.5,0.1,3.7-0.1c1.7-0.2,3.2-0.4,4.8-0.8
	c1.6-0.4,3.2-0.7,4.8-1c0.7,0,1.4,0,2.2-0.1c0.8-0.1,1.6-0.2,2.2-0.3c1.8,0,3.7-0.2,5.8-0.4c2.1-0.2,4.5-0.3,7.2-0.2
	c0.4-0.7,0.8-1.3,1.2-2c0.3-0.7,0.7-1.2,1.2-1.7c0.7,0.4,0.9,0.9,0.7,1.4c-0.2,0.5-0.2,1.2,0.2,1.8c0.2-1.7,0.2-3.2,0.2-4.7
	c-0.1-1.5-0.2-3.1-0.2-4.9c-0.2-0.9-0.5-1.8-0.7-2.7c-0.2-0.8,0-1.4,0.7-1.9c0.7,0.4,0.9,1,0.7,1.7c-0.2,0.7-0.3,1.5-0.3,2.5
	c0.4-0.2,0.7-0.4,0.9-0.6c0.2-0.2,0.5-0.1,0.9,0.1c0,0.9,0,2,0.1,3.1s0.2,2.2,0.4,3.3c0.4-0.4,0.9-0.3,1.3,0.4
	c0.5,0.7,0.7,1.7,0.4,2.8c0,0.2,0.2,0.2,0.7,0.2c0.5-0.1,0.8,0,1.1,0.2c0,0.4-0.2,0.8-0.4,1.1c-0.3,0.3-0.4,0.6-0.4,0.7
	c0.9,0,1.5,0.1,1.7,0.2c0.2,0.2,0.7,0.1,1.3-0.2c0.2,0.2,0.2,0.5,0,0.7c-0.2,0.2-0.4,0.4-0.4,0.7c0.4,0,0.8,0.1,1.2,0.2
	c0.4,0.1,0.6,0.5,0.6,1.2c-0.4,0.2-1.2,0.3-2.1,0.2c-0.9-0.1-1.7,0-2.5,0.2c0.2,2.9,0.4,6.2,0.4,9.6c0.1,3.4,0.1,6.9,0.1,10.5
	c0,3.6,0,7.1-0.1,10.5c-0.1,3.4-0.1,6.6-0.1,9.6c1.2,0.2,2.6,0.2,4,0.2c1.5,0,2.6,0.3,3.2,1c-0.4-0.1-1-0.2-1.7-0.2
	c-0.7-0.1-1.4-0.2-2.1-0.2c-0.7-0.1-1.3-0.1-2,0s-1.2,0.2-1.5,0.4v0.9c0.4,0.2,0.8,0.4,1.2,0.6c0.3,0.2,0.7,0.4,1.2,0.8
	c-0.4,0.3-0.9,0.9-1.4,1.8c0.2,0.2,0.7,0.3,1.3,0.3c0.7-0.1,1.3-0.1,2-0.2c0.7-0.1,1.3,0,1.8,0.2c0.5,0.2,0.7,0.4,0.7,1
	c-0.9,0.2-2.1,0.3-3.4,0.2c-1.3-0.1-2.3,0-3,0.2c0,0.9,0,2-0.1,3.1c-0.1,1.1-0.1,2.2,0,3.2c0.1,1,0.2,2,0.4,2.9s0.6,1.7,1,2.2
	c-0.2,0.2-0.4,0.6-0.8,0.8c-0.4,0.3-0.7,0.8-1,1.5c-0.2-0.4-0.2-1.1-0.1-1.9c0.2-0.8-0.2-1.3-0.8-1.3c-0.1-0.1-0.1-0.2,0-0.2
	c0-0.1,0.2-0.3,0.5-0.7c-0.9-1.4-1.9-2.6-2.9-3.6c-1-1-1.8-2.1-2.5-3.2c-0.4-0.2-0.8-0.2-1.1-0.1c-0.3,0.2-0.6,0.2-0.7,0.1
	c0-0.4-0.1-0.8-0.3-1.3c-0.2-0.4-0.4-0.7-0.6-1h-0.8c0,0.4,0.1,0.8,0.3,1.2c0.2,0.3,0.4,0.7,0.7,1c0.2,0.3,0.4,0.7,0.5,1
	c0.2,0.3,0.1,0.7-0.2,1c-0.4,0-0.7-0.1-1-0.2c-0.2-0.2-0.4-0.4-0.5-0.7c-0.2-0.2-0.2-0.5-0.4-0.7c-0.2-0.2-0.4-0.5-0.7-0.7
	c-0.4,0-0.6,0.2-0.5,0.4c0.1,0.3-0.2,0.4-0.7,0.4c-0.2-0.2-0.4-0.5-0.6-1.1c-0.2-0.6-0.1-0.9,0.1-1.1c-0.7,0-1.1,0.2-1.2,0.6
	c-0.1,0.4-0.2,0.8-0.2,1.2c-0.2,0-0.4-0.2-0.4-0.5c-0.1-0.3-0.1-0.7-0.1-0.9c-0.4,0-0.9-0.1-1.5-0.2c-0.6-0.1-1-0.3-1.2-0.7
	c0.2-0.2,0.7-0.2,1.1-0.2c0.5,0,0.7-0.2,0.7-0.7c-0.9-0.2-2-0.2-3.2,0.2c-1.2,0.2-2.2,0.4-3.2,0.4c-0.2-0.2-0.2-0.6-0.3-1
	c-0.1-0.4-0.1-0.7-0.1-0.8c0.4-0.2,0.8-0.5,1.1-0.8c0.3-0.3,0.7-0.3,1.1-0.1c-0.4-0.2-1-0.7-1.8-1.2c-0.7-0.6-1.1-1.5-0.9-2.9
	c0.4,0,0.8-0.1,1.2-0.2c0.3-0.1,0.7-0.1,1.2,0.2c0.2,0.2,0.1,0.4-0.3,0.5c-0.4,0.1-0.6,0.2-0.6,0.4c0.2,0.9,0.7,1.7,1.7,2
	c0.9,0.4,1.9,0.5,2.8,0.3c-0.2-0.4-0.7-1-1.3-1.7c-0.6-0.7-0.7-1.7-0.5-2.8c-0.7-0.7-1.2-1.5-1.7-2.4c-0.4-0.9-1.2-1.5-2.5-1.7
	c0.2-1.2,0-1.9-0.8-2.2c-0.8-0.3-1.6-0.7-2.2-0.8c0.2-0.7,0.2-1.1,0.3-1.1c0.1-0.1,0.1-0.2,0.1-0.7c0-0.4-0.3-0.7-1-0.7
	c-0.7,0-1.1-0.1-1.2-0.2c-0.2-0.2-0.5-0.6-0.7-1c-0.2-0.4-0.6-0.7-1-0.8c0.4-0.2,0.8-0.2,1.1,0.2c0.3,0.4,0.7,0.7,1.1,0.7
	c-0.4-0.7-0.8-1.4-1.2-2.2c-0.4-0.8-0.8-1.6-1.4-2.2c-0.6-0.7-1.2-1.2-2-1.5c-0.7-0.3-1.7-0.3-3,0c-0.2,0.2-0.2,0.4-0.1,0.5
	c0.2,0.1,0.2,0.2,0.1,0.4c-1.2-0.9-2.5-1.8-3.9-2.5c-1.4-0.7-2.7-1.7-3.9-2.9c0.9,0.2,2,0.7,3.2,1.6c1.2,0.7,2.2,1.7,3.2,2.6
	c0.2-0.7,0.7-1,1.1-1c0.5,0.1,1.2,0.1,2.2,0.1c-0.7-0.9-1.6-2-2.5-3.1c-1-1.1-2-2.2-2.9-3.3c-1.8,0-3.4,0.1-4.7,0.2
	c-1.3,0.1-2.8,0.1-4.3-0.2c0.7-0.7,1.3-0.9,2-0.7c0.7,0.2,1.3,0.2,2,0.2c0.4,0,0.6-0.2,0.4-0.5s-0.2-0.6,0.2-0.7
	c0.2,0,0.2,0.2,0.2,0.5s-0.2,0.6-0.2,0.7c0.4-0.2,0.8-0.2,1.3-0.2c0.4,0.1,0.7,0.2,0.9,0.2c0-0.2-0.2-0.4-0.7-0.8
	c-0.5-0.4-0.8-0.7-1.1-1c-2.2-0.4-4.6-0.4-7-0.1c-2.4,0.4-4.6,0.6-6.7,0.6c-4.3,0.2-8.7,0.2-13.3,0.1c-4.6-0.2-8.9,0.2-13.1,0.8
	c0,0.2,0,0.5-0.1,0.9c-0.1,0.4,0.2,0.4,1,0c-0.2,0.4-0.6,0.6-1.2,0.5c-0.6-0.1-1.2-0.2-1.6-0.2c0-0.2,0.2-0.2,0.7,0s0.5,0.1,0.2-0.4
	c-0.9-0.4-2.3-0.7-4.1-0.7c-1.7-0.1-3.2,0-4.1,0.2c0,0.2,0,0.6-0.1,1c-0.1,0.4,0.2,0.6,0.6,0.4c-0.2,0.2-0.4,0.4-0.5,0.7
	s-0.2,0.5-0.4,0.7c0.3,4.6,0.4,9.5,0.3,14.7c-0.2,5.2-0.2,10.6-0.4,16c-0.2,5.5-0.2,10.9-0.2,16.2c0.1,5.4,0.4,10.6,1.1,15.5
	c2.5-0.4,5.2-0.7,8-0.8c2.8-0.2,5.6-0.3,8.4-0.6c1.6,0,3.2,0.1,4.7,0.2c1.6,0.2,2.9,0.1,3.8-0.2c0.7-0.2,1.3-0.7,1.9-1.2
	c0.6-0.5,1.2-1.1,1.8-1.7c0.6-0.7,1.2-1.3,1.7-1.9c0.5-0.7,1-1.2,1.4-1.5c0.4-0.2,0.7-0.3,1-0.4c0.2-0.1,0.5-0.2,0.7-0.5
	c1.2-1.4,2.3-2.6,3.7-3.7c1.3-1,2.6-2.2,3.7-3.4c1.2-1.2,2.1-2.7,2.8-4.2c0.7-1.6,1.1-3.6,1.1-6c-0.5,0.2-1,0.7-1.3,1.1
	c-0.4,0.5-0.7,1-1.2,1.5c-0.4,0.5-0.8,1-1.2,1.4c-0.4,0.4-1,0.7-1.7,1c0.1-0.7,0.3-1.4,0.7-1.9c0.4-0.5,0.8-1,1.2-1.4
	c0.4-0.4,0.8-0.8,1.2-1.3c0.4-0.4,0.7-1,1-1.7c-1.2-0.2-2.2-0.4-2.9-0.6s-1.6-0.4-2.5-0.8c0.3-0.5,0.8-0.9,1.5-1.1
	c0.7-0.2,1.3-0.3,2.2-0.4c0.7-0.1,1.6-0.1,2.5-0.1c0.8,0.1,1.7,0,2.5-0.2c0.4-0.4,0.9-0.9,1.4-1.5c0.5-0.6,1.2-1,1.8-1.2
	c0.2-0.4,0.4-0.9,0.5-1.3c0.1-0.5,0.2-0.9,0.3-1.3c0.2-0.4,0.3-0.7,0.6-1c0.2-0.2,0.7-0.4,1.3-0.4c0.4,0.9,0.3,1.7-0.2,2.2
	c-0.6,0.6-1,1.3-1.2,2.2c0.6,0.4,0.9,1.2,0.9,2.2c0.4-0.2,0.5-0.4,0.2-0.8c-0.2-0.4-0.2-0.7,0.2-1c0.4,0.2,0.7,0.4,1,0.7
	c0.2,0.2,0.4,0.6,0.7,0.8c0.2,0.3,0.4,0.6,0.7,0.7c0.2,0.2,0.7,0.2,1.3,0.2c0.2-0.4,0.2-1,0-1.7c-0.2-0.7-0.1-1,0.4-1
	c0.1-0.3,0.1-0.7,0.1-1.2c-0.1-0.5-0.1-0.9-0.2-1.3c-0.1-0.4-0.1-0.8,0-1.1c0.1-0.3,0.2-0.4,0.6-0.4c0.4,0.9,0.7,2,0.8,3.1
	c0.2,1.1,0.2,2.2,0.4,3.3c0.9,0,1.8,0,2.7-0.1c0.8-0.1,1.7,0.2,2.3,0.6c0,0.2-0.1,0.4-0.2,0.4c-0.2,0.1-0.3,0.1-0.6,0.2
	s-0.4,0.2-0.5,0.3c-0.2,0.2-0.2,0.5-0.1,0.9c-0.4,0.2-0.9,0.2-1.3,0c-0.5-0.2-0.9-0.1-1.3,0.4c0.7,2.1,1.5,3.8,2.4,5.3
	s1.5,3.3,1.7,5.6c-0.2-0.4-0.6-1-0.9-1.8c-0.3-0.7-0.5-1.5-0.5-2.2c-0.4-0.7-0.9-1.4-1.3-2.2c-0.5-0.8-1.1-1.4-1.7-1.9
	c0.3,1,0.5,2.2,0.4,3.2c-0.1,1.2-0.2,2.2-0.3,3.3c-0.2,1.1-0.3,2.2-0.5,3.1c-0.2,1-0.2,1.9-0.2,2.7c0,1.2,0,2.7-0.1,4.6
	s0.2,3.6,0.6,4.9c0,0.7-0.2,1.2-0.4,1.6s-0.3,0.7-0.2,1.2c0,0.7,0.2,1,0.7,1c0.4-0.1,0.5,0.2,0.2,0.8c0.2,0.4,0.2,0.7-0.1,0.6
	s-0.6-0.1-0.8-0.1v2.2c0.2,0.2,0.6,0.3,1,0.2c0.4-0.1,0.7,0,0.8,0.2c0,0.7-0.2,1-0.6,1s-0.8,0.1-1.2,0.2c0.2,0.7,0.4,1.4,0.5,2.2
	s0.2,1.4,0.4,1.9c-0.7,1.8-0.8,3.9-0.5,6.2c0.3,2.3,0.5,4.5,0.5,6.6c0,0.2,0,0.6-0.1,1.1c-0.1,0.6-0.2,0.9-0.3,1.1
	c0,0.2-0.1,0.3-0.2,0.2c-0.2-0.1-0.2,0-0.2,0.2c-0.2,1.2-0.2,2.3-0.1,3.7c0.2,1.3,0.3,2.3,0.6,3.1c-0.4,0.9-0.6,1.8-0.4,2.6
	s0.2,1.7-0.2,2.8c0.2,0.2,0.6,0.4,0.9,0.6c0.3,0.2,0.5,0.4,0.5,0.8c0,0.4-0.2,0.7-0.5,0.8c-0.3,0.2-0.7,0.2-0.9,0.4
	c0,0.7,0.2,1.2,0.4,1.3c0.3,0.2,0.4,0.3,0.4,0.5c0.2,0.4,0.2,0.7-0.1,0.8c-0.3,0.2-0.6,0.3-0.8,0.6c0.7,0.4,1.6,0.7,2.6,0.7
	c1,0.1,2.2,0.2,3.4,0.2c-0.7,0.7-1.4,0.9-2.2,0.7c-0.7-0.2-1.7-0.3-2.9-0.3c0,0.2,0.1,0.4,0.2,0.5c0.2,0.1,0.1,0.2-0.2,0.4
	c0.2,0.4,0.7,0.6,1.3,0.4c0.7-0.2,1,0,1,0.4c-0.2,0.4-0.7,0.7-1.3,0.7c-0.6,0.1-1.2,0.2-1.9,0.2v3.7c0,0.3-0.1,0.5-0.2,0.5
	c-0.1,0.1-0.2,0.1-0.2,0c-0.2,0.4-0.3,0.9-0.2,1.3c0.1,0.5,0.2,0.9,0.2,1.3s0.1,0.7,0.1,1c0,0.3-0.2,0.6-0.5,0.8
	c-0.4-1.4-0.5-2.7-0.2-3.9s0.1-2.5-0.7-3.9c-0.2,0.2-0.2,0.7-0.1,1.5c0.2,0.7-0.2,1-0.8,0.8v-2.7c-0.9-0.4-1.9-0.6-2.8-0.4
	c-0.9,0.2-1.9,0.2-3.1-0.2c0,0.4,0.1,0.7,0.2,0.9c0.2,0.2,0.2,0.5,0.2,0.9c-0.2,0.2-0.4,0.4-0.8,0.5s-0.7,0.2-1,0.4
	c0.4,1.2,0.8,2.4,1.2,3.7c0.3,1.2,0.7,2.3,1.2,3.2c0,0.4,0.2,1,0.4,1.7c0.3,0.7,0.2,1.2-0.4,1.3c-0.7-0.2-1-0.6-1-1.2
	c0.1-0.7,0.1-1.4,0.1-2.4c0-1.4-0.5-2.7-1.4-4.2c-0.9-1.4-1.6-2.8-1.8-4.4c-0.2,0-0.4,0.1-0.8,0.2s-0.7,0.1-1-0.2
	c-0.4-0.7-0.5-1.2-0.2-1.6c0.3-0.3,0.7-0.7,1.1-1.2c0-0.2-0.1-0.5-0.2-0.7c-0.2-0.2-0.2-0.4-0.2-0.7c-0.9-0.2-1.7-0.1-2.5,0.4
	c-0.7,0.4-1.4,0.3-2.1-0.4c0.4-0.4,1.1-0.7,2-0.6c0.9,0.1,1.6-0.1,2-0.3c-0.7-1.6-1.3-3.3-1.9-5.2c-0.6-1.9-1.4-3.5-2.7-4.7v-1
	c0-0.3-0.3-0.5-0.9-0.5l0.4-0.7l-0.4-0.7c-0.2,0-0.2,0.2-0.2,0.4c0,0.3-0.2,0.4-0.7,0.4c0.4-0.9,0.6-1.9,0.5-2.8
	c-0.1-0.9-0.7-1.5-1.8-1.7c0.4-0.7,0.3-1.2-0.2-1.6c-0.6-0.3-1.2-0.7-1.6-1.2c-0.2-0.4-0.6-1-1-1.7c-0.4-0.7-0.8-1-1.3-1h-1.8
	c-0.1-0.8-0.5-1.4-1.2-1.7c-0.7-0.3-1.5-0.5-2.4-0.5c-0.9-0.1-1.8-0.1-2.7-0.2c-0.8-0.1-1.5-0.3-1.9-0.7c0-0.2,0.2-0.3,0.4-0.4
	c0.2-0.1,0.6-0.2,1-0.5c-2.1-0.4-4.4-0.7-7-1c-2.6-0.2-5-0.3-7.2-0.3c-0.3,0.7-0.9,1.2-1.7,1.3c-0.7,0.2-1.7,0.2-2.6,0.1
	c-0.9-0.1-1.9-0.2-3-0.3c-1-0.2-1.9-0.1-2.7,0.2c-0.3,5.1-0.7,10.1-0.9,14.9s-0.5,9.6-0.7,14.4c-0.2,4.7-0.2,9.6-0.3,14.4
	c-0.1,4.8,0,9.9,0.1,15.1c0,0.4,0.1,0.7,0.3,0.8c0.2,0.2,0.4,0.2,0.6,0.4c-0.4,0.7-0.6,1.7-0.3,2.8c0.2,1.2,0.3,2.4,0.3,3.5
	c1.4,1.2,3,2.4,4.8,3.7c1.8,1.2,3.8,2,6.1,2.2c1.2,0.2,2.5,0.2,3.8,0c1.3-0.2,2.5-0.1,3.4,0.4c-0.2,0.2-0.7,0.3-1.7,0.2
	c-0.9-0.2-1.7-0.2-2.4-0.2c0.9,0.4,2.1,0.7,3.4,1s2.4,0.4,3.4,0.4c0.2-1.2,0.6-2.2,1-3.2s0.7-1.8,0.8-2.8c0.4,0,0.7,0.1,0.8,0.3
	c0.2,0.2,0.3,0.4,0.6,0.6c0.4-0.2,0.6-0.4,0.4-0.7c-0.2-0.2,0-0.2,0.4,0.2c0.1-0.2,0.1-0.6-0.1-1c-0.2-0.4-0.2-0.9-0.4-1.3
	c-0.2-0.5-0.2-0.9-0.1-1.2c0.1-0.3,0.4-0.5,0.9-0.5c0.2,1.8,0.3,3.6,0.2,5.2c-0.2,1.7,0.1,3.4,0.7,5.2c1.4,0.4,2.9,0.7,4.5,1
	s3,0.5,4.2,0.7c-0.2,0.4-0.6,0.7-0.9,0.7c-0.3,0.1-0.7,0.1-1.2-0.1c-0.4-0.2-0.8-0.2-1.3-0.4c-0.4-0.2-0.8-0.2-1.2-0.2
	c-0.3,0.3-0.5,0.6-0.5,0.7c-0.1,0.2-0.1,0.3,0,0.5c-0.7,0-1.2,0.1-1.5,0.2c-0.3,0.2-0.6,0.1-0.7-0.2c-0.2,0-0.3,0.2-0.2,0.5
	c0.1,0.3,0,0.7-0.2,0.9c0.7,0.4,1.3,0.8,1.9,1.2s0.8,1,0.8,1.9c-0.2,0.2-0.5,0.4-0.9,0.5s-0.8,0.2-1.3,0.4c0.3,0.3,0.8,0.5,1.4,0.4
	c0.6-0.1,1.2-0.1,1.9-0.2s1.3-0.1,1.9-0.1c0.6,0.1,1.1,0.2,1.4,0.7c-0.7,0.2-1.5,0.3-2.5,0.2c-0.9-0.1-1.7,0-2.1,0.2
	c0,0.2,0.3,0.2,0.9,0.2c0.6,0,0.9,0.2,0.9,0.7c0,0.4-0.2,0.7-0.5,0.8c-0.3,0.2-0.7,0.2-1.2,0.1c-0.4-0.1-0.8-0.2-1.3-0.3
	c-0.4-0.2-0.7-0.2-1-0.2c-0.4,0.2-0.7,0.7-0.7,1.2c0,0.6-0.1,1.1-0.2,1.5c0.5,0.2,1.2,0.2,2.2,0.2c1-0.1,2-0.2,3.1-0.2
	c1.1-0.1,2.1-0.1,3.1,0c1,0.1,1.8,0.2,2.4,0.6c-1.7,0.4-3.5,0.5-5.7,0.3s-4.2-0.3-6.2-0.3c-0.3,0.2-0.5,0.7-0.5,1.3
	c-0.4-0.4-0.7-0.6-0.9-0.3c-0.2,0.2-0.6,0.3-1.3,0.3v-1.3c-0.2,0-0.5-0.1-0.7-0.2c-0.2-0.2-0.4-0.1-0.7,0.2c0-0.4,0.2-0.7,0.7-0.7
	c0.5-0.1,0.7,0,0.7,0.2c0.2-0.4,0.2-0.9,0.3-1.3c0.1-0.5,0.1-0.9,0.1-1.3c-2.9-0.2-6.5-0.2-10.6-0.2c-4.1,0.1-8,0.2-11.6,0.2
	c-0.2,0.6-0.3,1.2-0.2,1.9c0.1,0.7,0.2,1.4,0.3,2.2c0.2,0.7,0.2,1.4,0.2,2.1c-0.1,0.7-0.2,1.2-0.7,1.7c-0.4,0-0.7-0.3-0.8-1
	c-0.2-0.7-0.2-1.2-0.4-1.7c0.2,0,0.3,0.2,0.4,0.4c0.1,0.3,0.2,0.4,0.5,0.4c0.3-1.8,0.3-3.7,0-5.5c-0.2-0.4-0.7-0.7-1.5-0.6
	c-0.7,0.1-1.3,0.1-1.7,0.1c-0.1,0.3-0.1,0.7,0.1,1.2c0.2,0.4,0.2,0.8,0.3,1.3c0.1,0.4,0.1,0.8,0,1.2s-0.3,0.7-0.7,0.9
	c-0.2-0.4-0.3-1.2-0.2-2.1c0.1-0.9,0-1.7-0.2-2.5c-2.8,0-5.5,0-7.8-0.1c-2.3-0.1-4.6-0.1-6.7-0.1c-2.2,0-4.3,0-6.4,0
	c-2.2,0-4.3,0.1-6.7,0.2c-0.2,0-0.4,0.1-0.5,0.2c-0.1,0.2-0.2,0.2-0.4,0.2c-3-0.4-6-0.6-8.8-0.5s-5.6,0.2-8.1,0.5
	c0,1.2,0,2.3,0.1,3.6c0.1,1.2,0.2,2.5,0.4,3.7c0,0.7,0.2,1.5,0.4,2.4c0.2,0.9-0.1,1.4-0.9,1.7c-0.7-1.6-1-3.4-1-5.5
	c0.1-2.1,0.1-4,0.1-5.8c-3.2,0-6.6,0.1-10.1,0.2c-3.5,0.2-6.7,0.4-9.4,0.7c0,0.4,0.2,0.6,0.7,0.4c0.4-0.2,0.7,0,0.7,0.4
	c-0.4,0.7-0.9,0.8-1.3,0.4c-0.5-0.4-0.9-0.8-1.3-1.3c-0.7,0-1.2,0.1-1.7,0.3c-0.4,0.2-0.8,0.5-1.1,0.7c-0.3,0.3-0.7,0.6-1,0.7
	c-0.3,0.2-0.7,0.3-1.2,0.3c-0.2-0.2-0.6-0.4-1-0.7c-0.4-0.3-0.8-0.3-1.3-0.2c-0.9-1.8-2.3-2.7-4-2.7c-0.4,0-0.9,0.1-1.4,0.2
	c-0.5,0.2-1,0.2-1.4,0.2s-0.7-0.1-1-0.3c-0.2-0.2-0.3-0.7-0.2-1.5c0.7-0.2,1.3-0.3,2-0.2c0.7,0.1,1.2,0,1.7-0.2
	c-0.2-0.4-0.6-0.7-1-0.7c-0.4-0.1-0.8-0.1-1.3-0.1c-0.5,0.1-1.1,0.2-1.7,0.2c-0.6,0.2-1.1,0.2-1.5,0.2c0-0.3-0.3-0.5-0.9-0.5
	c1.4-0.7,2.9-1,4.6-1c1.7,0.1,3.3,0.1,5,0.1c-0.2,0-0.4-0.1-0.5-0.2c-0.1-0.2-0.2-0.2-0.4-0.2c0.4-0.9,1-1.7,1.7-2
	c0.7-0.4,1.3-0.8,2-1.2c-0.2-0.2-0.5-0.3-0.7-0.4s-0.4-0.2-0.7-0.5c-0.4,0.2-0.7,0.6-1,1c-0.2,0.4-0.5,0.7-0.7,0.8
	c-0.2-0.4-0.1-0.8,0.3-1.1c0.4-0.3,0.6-0.7,0.6-1.1c0-0.2-0.1-0.4-0.2-0.6c-0.2-0.2-0.2-0.4-0.2-0.8c-0.2,0-0.7,0.1-1.4,0.3
	s-1.2,0-1.3-0.7c0.7,0,1.4-0.1,2.2-0.3c0.8-0.2,1.7-0.4,2.7-0.6c0.1-0.6,0.2-1,0.4-1.3c0.2-0.2,0.3-0.5,0.5-0.7
	c0.2-0.2,0.3-0.5,0.4-0.7c0.1-0.2,0.2-0.7,0.2-1.3c0.2,0.4,0.5,0.8,0.9,1.2c0.4,0.4,0.4,1.1,0,2c3.4-0.9,6.9-1.8,10.6-2.7
	c3.7-0.8,7.2-1.7,10.6-2.7c-0.4-4.7-0.4-9.6,0-14.6c-0.5,0.7-0.8,1.5-0.9,2.4s-0.1,1.8-0.1,2.7c0.1,0.8,0.1,1.7,0.2,2.4
	c0.1,0.7-0.1,1.2-0.4,1.7c-0.2-1.2-0.3-2.5-0.2-3.7c0.2-1.3,0.2-2.7,0.2-4c-0.4-6.6-0.7-13-1-19.1c-0.2-6.2-0.2-12.4,0.1-18.6
	c0-0.4-0.2-0.6-0.5-0.4c-0.3,0.2-0.7,0-0.9-0.4c0-0.4,0.2-0.7,0.5-0.9c0.3-0.2,0.7-0.5,0.9-0.9c0.2-3.9,0.4-7.4,0.7-10.6
	c0.2-3.1,0.5-6.6,0.7-10.4c0-0.4-0.2-0.6-0.4-0.4c-0.3,0.2-0.4,0-0.4-0.4c-0.2-0.4-0.1-0.7,0.3-0.8c0.4-0.2,0.6-0.3,0.6-0.6
	c0.2-0.7,0.2-1.1-0.2-1.1c-0.4-0.1-0.7-0.2-0.7-0.7c0-0.4,0.2-0.7,0.4-0.6c0.3,0.1,0.4-0.1,0.4-0.3c0.2-4.7,0.2-9.8,0.1-15.1
	c-0.2-5.3-0.6-10.1-1-14.4c-0.2-0.2-0.6-0.4-1-0.4c-0.4,0-0.8,0-1.3,0.1s-0.9,0.1-1.3,0c-0.4-0.1-0.7-0.2-1-0.6
	c0.4-0.2,1.2-0.4,2.1-0.4c0.9-0.1,1.7-0.1,2.5-0.1c-0.1-1.6-0.2-3.4-0.2-5.5c0-2.2,0-4.3,0-6.7c0-2.3-0.1-4.7-0.2-7
	c-0.2-2.3-0.5-4.6-0.9-6.7c0.2-0.9,0.2-2-0.1-3.2c-0.2-1.2-0.2-2.1,0.1-2.8h1.3c0.7,1.8,0.9,3.7,0.6,5.8c-0.3,2.1-0.3,4.4-0.1,6.9
	c0.2,0,0.3-0.1,0.4-0.2c0.1-0.2,0.2-0.2,0.5-0.2c0-1.8,0.1-3.7,0.2-5.6s0.1-3.6-0.2-4.9c0-0.9-0.2-1.7-0.4-2.2c-0.2-0.5-0.6-1-1-1.4
	c-0.2,0-0.2-0.1-0.2-0.2c0.1-0.2,0-0.4-0.2-0.7c-0.7-0.9-1.6-1.5-2.6-1.7s-2.2-0.7-3.4-1.3c-1.6-0.2-3.1-0.6-4.6-0.9s-2.9-0.7-4.3-1
	c-1.4-0.3-2.8-0.5-4.3-0.7c-1.5-0.2-3-0.1-4.6,0.2v3.7h-0.9c-0.2,0.7-0.3,1.3-0.2,1.8c0.2,0.5,0.2,1,0.2,1.4c0,0.2-0.1,0.2-0.2,0
	c-0.2-0.2-0.2-0.1-0.2,0.4c-0.4-0.3-0.7-0.7-0.7-1.3c0-0.5,0.1-1.1,0.2-1.7s0.2-1.3,0.4-2.1c0.2-0.7,0.2-1.4,0.1-2.2
	c-0.5-0.2-1.2-0.3-1.8-0.2c-0.7,0.1-1.3,0.2-2,0.2c-0.7,0.1-1.2,0.2-1.7,0.2s-0.9-0.2-1.2-0.5c0.2-0.3,0.6-0.6,1-0.7
	c0.4-0.2,0.9-0.2,1.5-0.2c0.6,0,1.2,0,1.7-0.1c0.6-0.1,1.2-0.2,1.6-0.4c-0.4,0-1-0.1-1.8-0.2c-0.7-0.1-1.5-0.3-2.2-0.7
	c-0.2-0.4-0.2-0.7,0.2-1c0.3-0.2,0.7-0.3,1.2-0.3c0-0.2-0.1-0.4-0.2-0.5c-0.1-0.1-0.1-0.2,0.2-0.4c0.2,0,0.7-0.1,1.6-0.2
	c0.7-0.1,1.2-0.3,1.2-0.7c-0.3-0.2-0.7-0.3-1.2-0.2c-0.4,0.1-0.8,0.2-1.3,0.2c-0.4,0.1-0.8,0.2-1.2,0.2c-0.3,0.1-0.7,0-0.9-0.2v-0.5
	c0.4-0.7,1.2-1,2.2-1c1,0.1,2,0.1,2.9,0.1c0.2-0.2,0.2-0.4,0.2-0.8c-0.1-0.4-0.2-0.7-0.2-1c-0.3-0.1-0.7-0.1-1.1-0.1
	c-0.4,0.1-0.7,0.1-1.2,0.2c-0.4,0.1-0.7,0.1-1,0.1c-0.3-0.1-0.6-0.2-0.8-0.6c0.4-0.4,0.9-0.8,1.4-1.2c0.5-0.3,1.2-0.7,1.8-1.2
	c-0.7,0.2-1.6,0.3-2.5,0.2c-1-0.2-2-0.3-2.9-0.5c0.1-0.6,0.3-1,0.7-1.1c0.4-0.2,0.9-0.2,1.6-0.2c0.6,0,1.2,0,1.7,0
	c0.6,0,1-0.2,1.3-0.5c0.2-0.7,0.2-1.2-0.2-1.6c-0.2-0.3-0.4-0.7-0.4-1.2c0.4-0.4,0.7-0.5,0.8-0.2c0.2,0.2,0.3,0.5,0.6,0.7
	c0.1-0.4,0.1-0.9-0.1-1.3c-0.2-0.5-0.2-0.9-0.3-1.3c-0.1-0.4-0.1-0.7,0-1c0.1-0.3,0.3-0.6,0.7-0.8c0.4,0.2,0.7,0.8,0.7,1.7
	c0.1,0.9,0.2,1.7,0.2,2.4c0.9,0,1.7,0.2,2,0.8c0.4,0.6,0.5,1.3,0.3,2.2c1.7,0,3.4,0,5.4,0.1c1.9,0.1,3.8,0.1,5.7,0.2
	c1.8,0.1,3.7,0.2,5.3,0.2c1.7,0.1,3.2,0.1,4.5,0.1c0.2-1.8,0.1-3.6-0.2-5.2c-0.3-1.7-0.4-3.4-0.2-5.2c0.9,0,1.4,0.5,1.4,1.6s0,2,0,3
	c0.2,0.9,0.2,1.7,0.3,2.5c0.1,0.7,0.1,1.4,0.1,2.1c0,0.4,0.2,0.6,0.8,0.4s0.7,0,0.6,0.4c2.6,0,5,0,7.2,0s4.3,0,6.4-0.1
	c2-0.1,4.1-0.1,6.1-0.2c2-0.1,4.1-0.1,6.2-0.2c0.4,0,0.7,0.2,0.9,0.4c0.2,0.3,0.5,0.4,0.9,0.4c0-0.4,0.1-0.7,0.3-0.7
	C119.1,62.6,119.4,62.5,119.5,62.3z M68.2,68.2c-0.2-0.4-0.2-0.7-0.1-0.8c0.2-0.2,0.2-0.2,0.1-0.4c-0.4-0.2-0.7-0.1-0.7,0.4
	S67.7,68.2,68.2,68.2z M83.1,69.1c-1.8,0.2-3.5,0.4-5.2,0.4c-1.6,0.1-3.2,0.1-4.9,0.1c-0.9,0-1.9,0-2.9-0.1c-1-0.1-1.8,0.4-2.5,1.3
	c2.5,0,5.2-0.1,8.2-0.2c3-0.2,5.9-0.2,8.7-0.2c0.7,0,1.6,0,2.7,0.1c1.1,0.1,1.8-0.2,2.2-1c-0.9-0.7-2-0.9-3.2-0.7
	C85.1,69,84.1,69.1,83.1,69.1z M69.5,68.7c0.9-0.2,1.9-0.4,3-0.4c1-0.1,2-0.1,3-0.1c0-0.4-0.2-0.7-0.4-0.8c-0.3-0.2-0.4-0.2-0.4-0.4
	c-0.3,0-0.8,0-1.4,0S72,67,71.5,67.1c-0.6,0.2-1,0.3-1.4,0.6C69.5,67.9,69.4,68.3,69.5,68.7z M70,72.3c3.4,0.9,6.7,1.5,9.7,1.7
	c3.1,0.2,6.4,0.1,9.7-0.4v-2.2c-2.9,0.2-6,0.4-9.3,0.5C76.7,71.9,73.4,72.1,70,72.3z M70,233.7c0.2,0,0.3,0.1,0.4,0.2
	c0.2,0.2,0.4,0.1,0.8-0.2c-0.2-0.2-0.2-0.3,0.1-0.6c0.2-0.2,0.2-0.3-0.1-0.3c-0.4,0-0.7,0.1-0.8,0.3S70.2,233.6,70,233.7z
	 M73.6,234.2h2.2c0.1-0.2,0.1-0.4-0.2-0.4c-0.2,0-0.4,0-0.7,0.1s-0.5,0.1-0.7,0s-0.3-0.2-0.3-0.6c0.6,0.1,1.2,0.1,2,0
	c0.7-0.1,1.5-0.2,2.2-0.2c0.7-0.1,1.4-0.1,2.1-0.2c0.7-0.1,1.2,0.1,1.5,0.3c0.9-0.4,1.9-0.8,2.9-1.2c1-0.3,1.8-0.7,2.5-1.2
	c0.9-0.2,1.8-0.5,2.7-1c0.8-0.5,1.3-1.1,1.3-1.7c-3.2,0.4-6.5,1.1-9.7,1.9c-3.3,0.8-6.6,1.9-9.7,3.1c0.2,0.2,0.5,0.2,1.1,0.2
	s0.9,0,1.1,0.2C74.3,234,74.2,234.2,73.6,234.2C73.2,234.2,73.2,234.2,73.6,234.2z M73.1,239.7c1.4,0,2.6-0.1,3.7-0.2
	c1.1-0.2,2-0.6,2.7-1.2c-1.2,0-2.3,0.1-3.5,0.2C74.8,238.7,73.8,239.1,73.1,239.7z M76.4,233.7c0,0.4,0.1,0.7,0.2,0.6
	s0.4-0.1,0.7-0.1c0-0.4-0.1-0.7-0.3-0.6S76.5,233.7,76.4,233.7z M80.9,237c1.6,0.2,2.9,0.1,4.2-0.2c1.2-0.3,2.4-0.7,3.5-1.2
	c-1.6-0.2-3-0.2-4.3,0.1C83,235.8,81.9,236.3,80.9,237z M81.9,239.2c2,0,3.9,0,5.8-0.1c1.8-0.1,3.7-0.2,5.5-0.3
	c-0.9,0.1-2,0.1-3.1,0.1c-1.1-0.1-2.2-0.1-3.2-0.2s-2.1-0.1-3-0.1S82.3,238.8,81.9,239.2z M82.2,64.5c1.2,0.2,2.3,0.3,3.2,0.2
	s2-0.3,3.1-0.5c-1.2,0-2.3-0.1-3.5-0.2C83.9,63.9,82.9,64.1,82.2,64.5z M82.2,75.4c0.9,0,2.2,0.1,3.9,0.2c1.7,0.1,2.9-0.1,3.9-0.5
	c-0.9-0.4-2.2-0.5-3.7-0.2C84.8,75.1,83.4,75.2,82.2,75.4z M84.9,241.1c0.6,0.3,1.4,0.6,2.3,0.6c0.9,0.1,1.9,0,2.9-0.2
	s2-0.2,2.9-0.4s1.7-0.3,2.3-0.4c-1.7-0.2-3.4-0.2-5.2,0C88.3,240.9,86.6,241.1,84.9,241.1z M90,77.2c-0.4-0.2-1-0.3-1.7-0.5
	c-0.7-0.2-1.2-0.2-1.5,0.2c0.2,0.4,0.8,0.7,1.7,0.8C89.2,77.8,89.8,77.7,90,77.2z M87.3,236.5c0.4,0.7,1.1,1,1.9,1
	c0.8-0.1,1.7-0.1,2.7-0.1c0.7,0,1.3,0.1,2,0.2c0.7,0.2,1.2,0.1,1.7-0.2c-0.4-0.2-0.6-0.4-0.3-0.7c0.2-0.3,0.3-0.7,0.3-1.1
	c-1.7-0.4-3.2-0.4-4.6,0.2C89.4,236.2,88.3,236.5,87.3,236.5z M89.5,199.1c0,0.2,0.1,0.4,0.2,0.4s0.2-0.2,0.2-0.4v-0.8v-2.2
	c0-0.2,0.1-0.4,0.2-0.5c0.2-0.1,0.2-0.2,0.2-0.4c-0.2-0.2-0.4-0.7-0.4-1.7c-0.1-0.9,0-2,0.1-3.2c0.1-1.4,0.2-2.9,0.4-4.7l0.5,0.9
	c0-0.2-0.1-0.5-0.2-1c-0.1-0.5,0.1-0.7,0.5-0.7c0,0.4-0.1,0.8-0.2,1.2c-0.2,0.4-0.2,0.7-0.2,1.1c0,0.3,0.1,0.7,0.2,0.8
	c0.2,0.2,0.5,0.3,1,0.4c-0.2-0.9-0.2-1.9-0.2-2.9c0.1-1,0-1.8-0.2-2.5c0,0.2,0,0.3-0.1,0.2s-0.2-0.3-0.4-0.5v1.8
	c-0.2,0.2-0.3,0.2-0.4,0.2s-0.2,0.2-0.5,0.7c0.1-0.1,0.1-0.3,0.1-0.7c-0.1-0.4-0.1-0.8-0.2-1.2s-0.2-0.8-0.2-1.2
	c-0.1-0.4,0.1-0.7,0.3-1L91,182c0-0.7,0.1-1.5,0.2-2.3c0.1-0.8,0.1-1.3-0.2-1.3c-0.1,0.3-0.2,0.7-0.2,1c-0.1,0.2-0.2,0.4-0.2,0.6
	c0,0.2-0.1,0.1-0.2-0.2c0-0.9,0.1-1.7,0.2-2.2c0.2-0.6,0.2-1.2,0.2-1.9c-0.2,0-0.4-0.1-0.5-0.2c-0.1-0.2-0.2-0.2-0.4-0.2
	c-0.4,3.2-0.7,6.9-0.6,11.1C89.5,190.6,89.5,194.8,89.5,199.1z M90,99.6h0.9c0-0.2,0.1-0.4,0.2-0.5c0.2-0.1,0.2-0.2,0.2-0.4
	c-0.2-0.2-0.3-0.4-0.4-0.4c-0.2-0.1-0.4-0.1-0.8-0.1c0,0.2-0.1,0.5-0.2,0.7C89.7,99.1,89.8,99.4,90,99.6z M90,105.9
	c0.2,0.9,0.2,1.7,0.1,2.4c-0.2,0.7,0.2,1.2,0.8,1.7c0.4-0.4,0.6-1.1,0.4-2s-0.2-1.6,0-2L90,105.9L90,105.9z M90,233.7
	c0.7,0.4,1.4,0.3,1.8-0.4c-0.2,0-0.6,0-1,0.1C90.5,233.5,90.2,233.6,90,233.7z M90.4,173.7c0.3-0.5,0.5-1.2,0.6-1.9s0.1-1.5,0-2.2
	c-0.1-0.7,0-1.4,0.1-2.2c0.1-0.7,0.3-1.3,0.7-1.9c-0.3-0.7-0.6-1.4-0.6-2.2c-0.1-0.7,0-1.6,0.1-2.3c0.1-0.7,0.2-1.6,0.2-2.3
	s-0.2-1.5-0.5-2.2c0,1.3-0.1,2.7-0.2,4.2c-0.2,1.5-0.2,3-0.4,4.6s-0.2,3.1-0.2,4.6C90,171.2,90.2,172.5,90.4,173.7z M90.9,116.3
	c0-1.2,0-2,0.1-2.6s0.2-1.4,0.3-2.3c-0.4,0-0.7-0.1-0.6-0.2s-0.1-0.2-0.3-0.2c0.1,0.4,0.1,0.9,0.1,1.6c-0.1,0.6-0.1,1.2-0.2,1.7
	c-0.1,0.5-0.1,1,0,1.4C90.3,116,90.6,116.3,90.9,116.3z M90.9,120.5c0-0.2,0-0.7,0.1-1.6c0.1-0.7-0.2-1.2-0.6-1.2
	c0.2,0.7,0.3,1.2,0.2,1.7C90.3,119.9,90.5,120.3,90.9,120.5z M90.9,203.7c0.2,0.2,0.4,0.2,0.5-0.1s0.2-0.5,0.2-0.8
	c0.1-0.3,0-0.7-0.1-0.9s-0.2-0.4-0.2-0.4c-0.4,0.2-0.6,0.5-0.5,0.9C90.8,202.9,90.9,203.3,90.9,203.7z M91.3,200
	c0.4-0.4,0.7-1,0.6-1.8c-0.1-0.7-0.1-1.5-0.1-2.2v-6.4h-0.5c-0.2,2-0.3,3.7-0.4,5.3C90.8,196.6,90.8,198.3,91.3,200z M90.9,207
	c0.4,0.2,0.7-0.1,0.7-0.7c0-0.7-0.2-0.9-0.7-0.7V207z M91.3,210.1c-0.2-0.4-0.2-0.7,0-1s0.1-0.5-0.4-0.7
	C90.9,209.2,91.1,209.9,91.3,210.1z M95.8,68.7c-0.7,0-1.7,0-2.8,0s-1.7,0.4-1.7,1.3c0.1,0.2,0.3,0.2,0.8,0.2c0.5,0,1,0,1.6-0.1
	c0.6-0.1,1.2-0.1,1.7-0.2c0.6-0.1,1-0.1,1.3-0.1c3.9-0.2,8.1-0.4,12.6-0.8c4.5-0.4,8.7-0.7,12.9-1c-4.6-0.2-9.2-0.2-13.9-0.1
	C103.7,68.3,99.5,68.4,95.8,68.7z M92.3,116.3c0.4-0.4,0.6-1.2,0.4-2.2c-0.2-1.1-0.2-2,0.2-2.7h-0.9c0,0.3-0.1,0.7-0.2,1.3
	c-0.1,0.5-0.2,1-0.2,1.6c-0.1,0.5,0,1,0.1,1.3C91.7,116,91.8,116.3,92.3,116.3z M92.3,120.5c0-0.4,0.1-0.9,0.2-1.3
	c0.2-0.5,0.2-0.9,0.2-1.3h-0.9c0,0.2-0.1,0.7-0.2,1.5C91.6,120.1,91.8,120.5,92.3,120.5z M91.8,71.8c-0.2,0.6-0.1,1,0.2,1.2
	c0.3,0.2,0.7,0.3,1.3,0.4c0.5,0.1,1.1,0,1.7-0.1c0.6-0.1,1-0.2,1.3-0.2c3-0.2,6.4-0.5,10-0.7c3.7-0.2,7.3-0.4,11.1-0.7
	c3.7-0.2,7.5-0.4,11.1-0.7c3.7-0.2,7-0.4,10-0.7c0.1-0.2,0.1-0.4,0.1-0.5c-0.1-0.1-0.2-0.2-0.2-0.2c-0.2-0.1-0.2-0.2-0.3-0.3
	c-0.1-0.2-0.1-0.3,0.2-0.7c-7.8,0.4-15.6,0.9-23.2,1.3C107.4,70.5,99.7,71.1,91.8,71.8z M134.1,72.3c-5,0.2-10.3,0.4-15.8,0.7
	c-5.5,0.3-11,0.7-16.5,1.1c-1.8,0.2-3.6,0.2-5.3,0.2c-1.7,0-3.3,0.2-4.7,0.7c2.2,0.7,4.6,0.8,7.1,0.5c2.5-0.3,5.1-0.5,7.9-0.5
	c4.8-0.2,9.7-0.2,14.4,0.1c4.7,0.3,9.2,0.1,13.4-0.6c0.7,0,1.4-0.2,2.2-0.6c0.7-0.4,1.2-0.9,1.5-1.7c-0.7-0.4-1.4-0.6-2.2-0.5
	C135.1,71.9,134.5,72.1,134.1,72.3z M128.2,76H120c-4.8,0.2-9.7,0.2-14.6,0.2s-9.4,0.3-13.6,1c4.2,0.2,8.3,0.5,12.6,0.7
	s7.9,0.4,11.1,0.7c1.2-0.2,2.5-0.4,4.2-0.4c1.7,0,3.4,0,5.2-0.1c1.8-0.1,3.6-0.2,5.3-0.3c1.7-0.2,3.2-0.5,4.3-1
	c-0.7,0-1.3,0.1-2,0.2c-0.7,0.2-1.2,0.2-1.8,0.2s-1.1-0.1-1.5-0.2C128.9,76.8,128.5,76.5,128.2,76z M91.8,214.6h2.7
	c0-0.4,0-0.9-0.1-1.5s-0.2-1-0.4-1.2c-0.9-0.2-1.6,0-1.8,0.5C92,212.9,91.8,213.7,91.8,214.6z M91.8,217.9v4.6
	c1.3,0.4,2.3,0.2,3.1-0.5c-0.8,0-1.3-0.3-1.3-0.9c0.2-0.4,0.3-0.9,0.6-1.3c0.2-0.5,0.3-1.1,0.3-1.7
	C93.6,217.4,92.7,217.4,91.8,217.9z M92.3,109.6c0.7-0.7,0.9-1.7,0.7-3.2c-0.2-1.5-0.4-2.7-0.7-3.7C91.8,105,91.8,107.4,92.3,109.6z
	 M92.3,206.5c0.4,0,0.8,0.1,1.1,0.2c0.3,0.2,0.5,0.1,0.7-0.2c0-0.4-0.1-0.7-0.2-1c-0.1-0.2-0.5-0.3-1.2-0.3c0,0.4-0.2,0.7-0.4,0.8
	S92.1,206.3,92.3,206.5z M92.8,162.8c0.2-0.2,0.2-0.5,0.2-1.1c-0.1-0.6,0-0.9,0.2-1.1h-0.9c0.2,0.2,0.3,0.5,0.2,0.9
	C92.4,161.9,92.5,162.4,92.8,162.8z M92.3,208.3v1.8c0.4,0.2,0.8,0.3,1.2,0.2s0.7-0.2,1.2-0.2c0-0.4-0.1-0.8-0.2-1.2
	s-0.3-0.6-0.7-0.6c0-0.1-0.2-0.2-0.7-0.2C92.6,208.1,92.4,208.2,92.3,208.3z M93.7,199.7c0-0.3,0-0.8,0-1.6c0-0.7-0.1-1.4-0.2-2.2
	c-0.1-0.7-0.2-1.5-0.2-2.2c-0.1-0.7-0.2-1.3-0.5-1.7c0.1,0.7,0.1,1.4,0,2.2c-0.1,0.8-0.2,1.6-0.2,2.3c-0.1,0.7-0.1,1.4,0.1,1.9
	C92.7,199,93.1,199.5,93.7,199.7z M92.8,134.6c0.2-0.2,0.4-0.7,0.4-1.2c0.1-0.5,0.1-1.1,0-1.7c-0.1-0.6-0.1-1.2-0.2-1.7
	c-0.1-0.5-0.2-0.8-0.2-1c-0.2,0.7-0.3,1.6-0.2,2.5C92.7,132.7,92.8,133.7,92.8,134.6z M93.2,165.1v-0.9h-0.4
	c-0.2,0.2-0.3,0.3-0.2,0.6S92.9,165.1,93.2,165.1z M93.2,168.3c0-0.2,0.1-0.4,0.2-0.7c0.1-0.3-0.1-0.3-0.5-0.2
	c-0.2,0-0.3,0.2-0.2,0.4C92.8,168.1,92.9,168.3,93.2,168.3z M93.2,159.1c0-0.4,0.1-1,0.2-1.7c0.1-0.7-0.1-1-0.5-1
	c0.1,0.3,0.1,0.7,0.1,1c-0.1,0.3-0.1,0.7-0.2,0.9c-0.1,0.2-0.1,0.4-0.1,0.6C92.6,159.1,92.8,159.1,93.2,159.1z M92.8,226.5
	c0.2,0,0.3-0.1,0.4-0.2c0.2-0.2,0.4-0.2,0.8-0.2c0-0.2,0.1-0.5,0.2-0.7c0.2-0.2,0.2-0.4,0.2-0.7c-0.2,0-0.4-0.1-0.5-0.2
	c-0.1-0.2-0.2-0.2-0.4-0.2c0,0.4-0.2,0.7-0.7,0.9C92.6,225.3,92.5,225.8,92.8,226.5z M93.2,150.5c0.2,0,0.4-0.2,0.4-0.8
	c0-0.6-0.2-0.7-0.4-0.6c0,0.2-0.1,0.6-0.3,0.9C92.6,150.4,92.7,150.5,93.2,150.5z M129.1,62.7c-1.8,0.2-4.2,0.4-7.2,0.5
	s-6.2,0.2-9.7,0.2c-3.4,0.1-6.9,0.1-10.3,0.2c-3.5,0.1-6.6,0.2-9.2,0.5c8.7,0,16.8-0.1,24.5-0.2c7.7-0.1,14.6-0.3,21-0.7
	c-1.8,0-3.6,0-5.2-0.1C131.4,63.1,130.1,62.9,129.1,62.7z M92.8,203.7h1.3c-0.2-0.4-0.2-0.8-0.2-1.3c0.1-0.4,0-0.7-0.2-0.9
	c-0.3,0.2-0.7,0.2-0.9,0L92.8,203.7L92.8,203.7L92.8,203.7z M93.2,153.7v-1.8c-0.2,0-0.2,0.3-0.2,0.9
	C92.8,153.4,92.9,153.7,93.2,153.7z M94.9,81.4c2.5,0.4,4.9,0.6,7.2,0.3c2.3-0.2,4.7-0.3,6.9-0.3c3.9-0.2,7.9-0.3,12-0.2
	s8,0.2,11.6,0.2c0.2,0,0.7,0.1,1.2,0.2s1,0.1,1.6,0c0.5-0.1,1-0.2,1.3-0.5c0.4-0.2,0.5-0.7,0.4-1.4c-3.7-0.1-7.1-0.2-10.4-0.2
	c-3.3,0-6.7,0-10.1,0c-3.4,0-7-0.1-10.8-0.2c-3.7-0.1-7.9-0.3-12.4-0.7c0.2,0.4,0.3,0.9,0.4,1.5C94.3,80.7,94.5,81.2,94.9,81.4z
	 M93.7,231.5c0.2,0,0.5,0,1,0.1c0.5,0.1,0.7-0.2,0.7-0.6c-0.2-0.2-0.7-0.2-1.1-0.1C93.9,231.1,93.7,231.2,93.7,231.5z M113.6,82.3
	c-2.1,0-4.5,0.2-7.2,0.4c-2.7,0.3-5.2,0.4-7.4,0.4c-0.9-0.2-1.8-0.5-2.6-0.7s-1.3,0.2-1.6,1.1c4.1,0.2,7.9,0.5,11.5,0.7
	c3.6,0.2,7.1,0.5,10.5,0.7c3.4,0.2,6.7,0.2,10.1,0.3c3.3,0.1,6.7-0.1,10.3-0.3c-0.2-0.4-0.3-0.9-0.2-1.6c0.1-0.6,0-1-0.2-1.2
	c-3.4,0.2-7,0.2-10.8,0.2C122.1,82.4,118,82.3,113.6,82.3z M105,86c0,0.1,0.2,0.2,0.7,0.2c0.5,0.1,1,0.1,1.7,0.1s1.3,0,2,0
	s1.2,0.1,1.6,0.2c-0.2,0.2-0.2,0.5-0.1,0.7c0.2,0.2,0.2,0.4,0.1,0.7c-1.2-0.1-2.4-0.2-3.8-0.4c-1.4-0.2-2.8-0.3-4.3-0.4
	c-1.4-0.2-2.8-0.2-4.1-0.2c-1.3,0-2.4,0.1-3.2,0.2c6.8,0.9,13.5,1.4,19.8,1.5c6.4,0.1,12.6-0.2,18.8-0.6c0.4,0,1,0.1,1.7,0.2
	c0.7,0.2,1.2-0.2,1.5-1.2c-2.5-0.3-4.9-0.5-7.1-0.5c-2.2,0-4.3,0-6.4,0.1s-4.2,0.1-6.2,0.2s-4.2,0-6.3-0.2h0.5
	c-0.7-0.4-1.7-0.7-3.2-0.7C107.2,85.6,105.9,85.7,105,86z M96.8,90.6c-0.2,0.2-0.4,0.2-0.7,0.2c-0.3-0.1-0.5,0-0.5,0.2
	c0.4,0,0.7,0.1,1,0.2C96.7,91.1,96.8,91,96.8,90.6z M116.4,110.9c-3.2,0-6.5,0.1-10,0.2c-3.4,0.2-7,0.2-10.6,0.2
	c0,0.4-0.1,0.8-0.2,1.1c-0.2,0.3-0.2,0.7-0.2,1.1h42.8c0-0.7-0.1-1.2-0.2-1.3c-0.2-0.2-0.1-0.7,0.2-1.3L116.4,110.9L116.4,110.9z
	 M127.7,114.6c-4.7,0-9.7,0-14.7,0.1c-5,0.1-9.8,0.2-14.4,0.4c-0.4,0-1,0-1.7-0.1c-0.7-0.1-1.2,0.2-1.3,1c0.1,0.4,0.2,0.7,0.6,0.8
	c0.3,0.2,0.7,0.2,1,0.1c0.4-0.1,0.7-0.2,1.1-0.3c0.3-0.2,0.7-0.2,0.9-0.2c4.7,0,9.7,0.1,14.7,0.2c5.1,0.2,10.6,0.1,16.6-0.2
	c0.4,0,0.9,0.1,1.6,0.2c0.6,0.1,1-0.1,1.2-0.5c-0.7-0.7-1.6-1-2.5-1C129.6,114.9,128.7,114.8,127.7,114.6z M123.1,165.1
	c-0.9,0.4-1.9,0.6-3,0.5c-1-0.1-2.2-0.2-3.4-0.2c-1.4,0-3,0.2-4.7,0.4c-1.7,0.3-3.7,0.4-5.7,0.4c-1.8,0-3.7-0.1-5.7-0.2
	c-1.9-0.2-3.4,0.1-4.3,0.7c0.2-0.2,0-0.2-0.4,0.4c-0.5,0.5-0.5,1-0.1,1.4c7.8,0,14.9-0.1,21.3-0.2c6.4-0.1,12.8-0.3,19.2-0.7v-2.3
	c-2.2-0.2-4.5-0.2-6.7,0C127.4,165.7,125.2,165.5,123.1,165.1z M138.3,106.9c0.1-0.4,0-0.7-0.2-1c-0.2-0.2-0.6-0.4-1-0.6
	c-0.4-0.2-0.8-0.2-1.2-0.2s-0.7,0-0.7,0c-2.8-0.2-6-0.5-9.3-0.7c-3.3-0.2-6.7-0.4-10.2-0.6c-3.5-0.2-6.9-0.2-10.2-0.2
	c-3.4,0.1-6.5,0.2-9.3,0.6c-0.3,0.8-0.3,1.9,0,3.1c5,0,10-0.2,14.9-0.5c4.9-0.3,9.7-0.2,14.2,0.5c0.7-0.2,1.4-0.3,2.2-0.2
	c0.7,0.1,1.6,0.2,2.3,0.2c0.7,0.1,1.5,0.2,2.2,0.2c0.7,0,1.3-0.2,1.9-0.5c0.1,0,0.3,0.1,0.8,0.2c0.5,0.2,1,0.2,1.6,0.3
	c0.6,0.1,1.1,0.1,1.5,0.1C138,107.4,138.3,107.3,138.3,106.9z M134.1,97.3c0-0.2-0.2-0.5-0.5-0.7c-0.2-0.1-0.3-0.2-0.4-0.2
	c-2.5-0.3-5.4-0.6-8.6-0.7c-3.2-0.1-6.5-0.1-9.8,0s-6.6,0.2-9.8,0.3s-6.1,0.2-8.6,0.3c0.2-1.2,0.6-1.7,1.2-1.5
	c0.6,0.2,1.2,0.2,1.9,0.2c6-0.2,11.9-0.3,17.9-0.2c5.9,0.2,11.5,0.3,16.7,0.5c0-0.6,0.2-1,0.5-1.3v1.3h3.7c-0.2-0.4-0.4-0.9-0.6-1.3
	c-0.2-0.5-0.1-0.9,0.1-1.3c-1.2,0-1.9-0.1-2.5-0.2c-0.5-0.2-0.9,0.2-1.2,1.2c0-0.4-0.2-0.7-0.7-0.7c-0.5-0.1-0.8-0.2-1.1-0.2
	c-1.4-0.2-2.8-0.2-4.3-0.2c-1.5,0.1-2.9,0-4.3-0.2c-5.7-0.2-10.7-0.3-15.1-0.2c-4.4,0.1-8.6,0-12.6-0.2c-0.2,0.7-0.2,1.6-0.2,2.7
	c0.1,1.2,0.2,1.9,0.2,2.3c7.6,0.4,14.7,0.8,21.5,1.2c6.8,0.4,13.7,0.6,20.9,0.6V97c-0.2,0-0.5,0-0.9-0.1c-0.4-0.1-0.9-0.1-1.3-0.1
	c-0.5,0-0.9,0-1.3,0.1C134.3,96.9,134.1,97,134.1,97.3z M133.2,117.3c-6.4,0-12.8,0.1-19.1,0.2c-6.4,0.2-12.4,0.2-18.1,0.2
	c-0.2,0.4-0.2,0.8-0.2,1.2s0.2,0.8,0.2,1.6c3.7,0,7.6,0.1,11.7,0.2c4.2,0.1,8.5,0.1,12.8-0.2c2.1-0.2,4.2-0.3,6.6-0.2
	c2.3,0.2,4.3,0.1,6.2-0.4c0.3,0,0.5-0.2,0.5-0.4c0.4,0.7,1.2,0.9,2.1,0.7c0.9-0.2,1.7-0.3,2.5-0.3c0-0.2,0.1-0.5,0.2-1.1
	c0.1-0.6,0.1-0.9-0.2-1.1c-0.7,0.2-1.5,0.2-2.5-0.1c-0.9-0.2-1.7-0.2-2.1,0.1c0,0.2,0.1,0.4,0.2,0.8c0.1,0.4,0.1,0.7-0.2,1
	c0-0.4-0.1-0.8-0.2-1.2C133.3,118.1,133.2,117.8,133.2,117.3z M127.3,173.7c-2.5,0.2-5,0.3-7.3,0.4c-2.4,0.1-4.8,0.2-7.3,0.3
	c-2.5,0.2-5.2,0.2-7.9,0.4c-2.7,0.2-5.7,0.2-8.9,0.3c-0.2,0.4-0.2,0.8-0.2,1.1c0.1,0.3,0.2,0.7,0.2,1.1c5.3,0,10.3-0.1,15.1-0.2
	c4.8-0.2,9.7-0.2,14.5-0.2c2,0,4-0.1,6.1-0.2c2-0.1,4-0.3,5.8-0.7c0-0.2-0.1-0.5-0.2-0.7c-0.2-0.2-0.2-0.4-0.2-0.7
	c-1.6-0.4-3.2-0.7-4.9-0.7C130.3,173.8,128.7,173.7,127.3,173.7z M96.4,128.2c0.4,0,0.6-0.3,0.4-1c-0.2-0.7-0.2-1.1,0-1.2h-0.9
	c0,0.2,0,0.6-0.1,1.2C95.8,127.9,95.9,128.2,96.4,128.2z M95.8,98.2v1.8c4-0.1,7.6-0.1,10.7,0.1c3.2,0.2,6.2,0.2,9.1,0.3
	c2.8,0.1,5.7,0.1,8.7,0s6.1-0.3,9.4-0.7c-6-0.2-12-0.5-18.1-0.7C109.6,98.7,103,98.5,95.8,98.2z M117.7,101.5
	c-1.2-0.2-2.6-0.3-4.3-0.2s-3.3,0.1-4.7-0.4c-1.4,0-2.9,0-4.6,0.1c-1.7,0.1-3.2,0.2-4.6,0.4c-0.7,0-1.5-0.1-2.3-0.2
	c-0.8-0.2-1.3,0.2-1.3,1.1c2.1,0.4,4.1,0.6,6,0.3c1.9-0.2,3.8-0.3,5.8-0.3c4.8,0.2,9.7,0.4,14.6,0.7s10.3,0.5,16.3,0.5
	c-0.1-0.2-0.1-0.6-0.1-1c0.1-0.4,0.1-0.7,0.1-1.2c0-0.4-0.1-0.7-0.2-1c-0.2-0.3-0.5-0.4-1-0.4c-0.4,0-0.6,0.2-0.3,0.7
	c0.2,0.5,0,0.7-0.6,0.7c-2.7-0.2-5.8-0.2-9.2-0.1C124,101.6,120.7,101.6,117.7,101.5z M133.2,109.1c0-0.2-0.2-0.4-0.4-0.4
	c-0.7-0.3-1.8-0.6-3.2-0.7c-1.4-0.1-2.8-0.2-4.3-0.2c-1.5,0-3,0-4.4,0c-1.4,0-2.6-0.1-3.4-0.2v-0.5c-1.4,0.3-3,0.6-4.7,0.7
	c-1.7,0.1-3.7,0.2-5.6,0.2c-1.9,0-3.9,0.1-5.8,0.2c-1.9,0.2-3.7,0.4-5.2,0.8v0.9c4.8,0.2,9.7,0.2,14.6,0.1
	c4.9-0.2,10.3-0.2,16.3-0.1c1.8,0,3.7-0.1,5.7-0.2s3.9-0.5,5.7-1.2c-0.9,0.2-1.8,0.2-2.7-0.2C134.6,108.4,133.9,108.5,133.2,109.1z
	 M116.4,129.1c-2.7-0.2-5.6-0.3-8.5-0.5c-2.9-0.2-5.8-0.2-8.7,0.2c-0.2,0.2-0.7,0.3-1.1,0.4c-0.5,0.1-0.7,0.2-0.7,0.5
	c-0.2,0-0.4-0.2-0.5-0.4c-0.1-0.2-0.2-0.3-0.4-0.2c0,0.4-0.1,0.8-0.2,1.2c-0.2,0.3-0.2,0.8-0.2,1.6c6.2,0.2,12.6,0.2,19.1,0.1
	c6.5-0.2,13.1-0.2,20.1-0.1c0-0.4-0.1-0.8-0.2-1.1c-0.1-0.3-0.1-0.7,0.2-1.1c-3.4,0-6.6-0.1-9.7-0.2
	C122.4,129.2,119.4,129.1,116.4,129.1z M103.2,151.9c-1.2,0-2.4,0-3.7-0.1c-1.4-0.1-2.6,0.2-3.5,0.6c0,0.5,0.2,0.8,0.5,1
	c0.3,0.2,0.7,0.2,1.2,0.2c0.5,0,1-0.1,1.5-0.2c0.5-0.2,0.9-0.2,1.3-0.2c1.4,0,2.9,0.1,4.6,0.2c1.7,0.2,3.3,0.2,5,0.2
	c4.2,0,8.6,0.2,13.1,0.4c4.6,0.2,8.8,0.3,12.7,0.2c0.3,0,0.7,0,1.3,0c0.5,0,1-0.1,1.4-0.2c0.4-0.2,0.8-0.3,1.1-0.7
	c0.3-0.3,0.4-0.8,0.3-1.5c-3.3,0-6.4,0-9.4-0.1c-3-0.1-6-0.1-8.9-0.1s-5.9,0-9,0C109.7,151.7,106.5,151.8,103.2,151.9z M124,156.9
	c-4.6,0-9.3-0.1-14.1-0.2c-4.8-0.2-9.5-0.1-14.1,0.2v2.2c1.7,0.4,3.3,0.4,5.1,0.1c1.7-0.4,3.4-0.7,4.9-1c4.2-0.2,8.2-0.2,12.3,0
	c4,0.2,8.2,0.1,12.3-0.4c-0.4-0.7-1.2-1-2.5-1C126.8,156.9,125.5,156.9,124,156.9z M135,158.8c-0.2,0.2-0.6,0.3-1.2,0.4
	c-0.6,0.1-1.2,0.2-1.6,0.5c-1.2-0.7-2.4-0.9-3.9-0.7c-1.5,0.2-2.9,0.2-4.3,0.2c-1.8,0.2-3.7,0.3-5.7,0.2s-3.8-0.2-5.7-0.2
	c-2.7,0-5.7,0.2-8.7,0.8c-3,0.6-5.7,0.7-8.2,0.6v1.8c3.9-0.2,7.7-0.4,11.5-0.4c3.7,0,7.5,0,11.1,0c3.6,0,7.1-0.1,10.4-0.2
	c3.3-0.2,6.5-0.4,9.4-0.8c-0.4-0.7-0.5-1.1-0.2-1.1c0.3-0.1,0.3-0.4,0.2-1.1c-0.4,0-1-0.1-1.7-0.2
	C135.8,158.4,135.3,158.5,135,158.8z M134.6,162.4c-1.8,0-3.7,0.1-5.5,0.2s-3.8,0.4-5.9,0.7c-4.3,0-8.9,0-13.8-0.1
	c-4.8-0.1-9.3,0.2-13.5,1v0.9c6.4,0.2,12.8,0.1,19.2-0.3c6.4-0.4,13.1-0.6,19.9-0.6c0-0.2-0.1-0.5-0.3-0.7c-0.2-0.2-0.1-0.2,0.3-0.2
	c0.4,0.2,0.9,0.2,1.4,0c0.5-0.2,1.2-0.1,1.8,0.4c0.2-0.5,0.2-0.9-0.2-1.1c-0.3-0.2-0.7-0.3-1.2-0.4s-0.9,0-1.4,0.1
	C134.9,162.4,134.7,162.4,134.6,162.4z M132.8,171.8c-6.2-0.7-12.3-1.2-18.3-1.3c-6-0.2-12.1-0.1-18.6,0.4v2.7
	c3.9-0.2,7.6-0.4,10.9-0.4c3.4-0.1,6.7-0.1,10-0.2c3.2-0.1,6.5-0.1,9.7-0.1s6.7-0.1,10.3-0.2c-0.1-0.4-0.2-0.7-0.6-0.9
	c-0.3-0.2-0.7-0.2-1-0.2c-0.3,0-0.8,0.1-1.2,0.2C133.5,171.8,133.1,171.8,132.8,171.8z M98.6,178.7c-0.4,0-0.9,0-1.5-0.1
	s-1,0.2-1.2,1c6,0,11.9,0.2,17.6,0.4c5.8,0.3,11.4,0.4,16.9,0.4c1.2,0.2,2.3,0.2,3.4,0.2c1.1-0.1,2.2-0.4,3.4-1.1v-0.9
	c-6.2-0.4-12.7-0.6-19.4-0.5C111.3,178.3,104.8,178.5,98.6,178.7z M95.8,181.5v2.7c4-0.1,7.8-0.2,11.4-0.2s7.2,0,10.6,0
	c3.4,0,6.7-0.1,9.9-0.2c3.2-0.1,6.4-0.3,9.7-0.7v-1.4c-6.4,0-13.2-0.2-20.4-0.7C109.7,180.7,102.7,180.8,95.8,181.5z M95.8,185.5
	v2.3c3.6-0.1,7.2-0.1,10.8-0.1c3.7,0.1,7.2,0.2,10.7,0.2c3.5,0.2,6.9,0.2,10.1,0.3c3.2,0.1,6.2,0.1,9-0.2c0.2-0.4,0.3-0.8,0.6-1.2
	s0.3-0.8,0.3-1.6c-7.4-0.4-14.4-0.6-21.1-0.4C109.5,185.2,102.7,185.3,95.8,185.5z M119.1,189.1c-3.9-0.2-7.7-0.3-11.6-0.4
	c-3.8-0.2-7.7,0-11.6,0.4v2.3c0.7-0.2,1.4-0.2,2.2,0s1.6,0.4,2.2,0.4c1.8,0.2,3.7,0.2,5.8,0c2.1-0.2,3.9-0.4,5.6-0.4
	c1.9-0.1,3.9-0.1,6.1-0.1c2.2,0.1,4.3,0.1,6.4,0.2c2.1,0.1,4.1,0.2,6.1,0.2c1.9,0.1,3.7-0.1,5.2-0.3c0-0.2,0.3-0.4,0.9-0.4
	c0.6,0,0.9-0.3,0.9-1c-2.7-0.7-5.7-0.9-8.7-0.7C125.5,189.5,122.4,189.4,119.1,189.1z M96.4,145.5l-0.2,0.2c-0.1,0.1,0,0.2,0.2,0.4
	h0.3c5.7,0.2,11.5,0.3,17.3,0.5c5.8,0.2,11.6,0.2,17.3-0.2c-5.7-0.4-11.4-0.7-17-0.6S102.8,145.7,96.4,145.5z M96.4,144.2
	c5.7,0.2,11.3,0.3,16.9,0.4c5.6,0.2,10.8,0.4,15.9,0.8c0.2-0.4,0.7-0.7,1.2-0.7c0.5-0.1,1.1-0.1,1.7-0.1c0.6,0.1,1.2,0.1,1.9,0.1
	s1.2-0.2,1.7-0.5c-0.9,0-1.3-0.2-1-0.7c0.2-0.5,0.6-0.8,1-1c-6.7,0.2-13.4,0.2-20.1,0.2c-6.7-0.1-13.1-0.2-19.1-0.7
	c0,0.7-0.1,1.2-0.2,1.3C96.1,143.5,96.1,143.8,96.4,144.2z M124.6,191.9c-2.4,0-4.8,0.1-7.2,0.3s-4.7,0.4-7.1,0.6s-4.7,0.2-7,0.2
	s-4.7-0.2-6.9-0.7c-0.2,0.7-0.3,1.4-0.2,2.2c0.2,0.8,0.3,1.7,0.5,2.7c1-0.2,2.2-0.4,3.4-0.4c1.2-0.1,2.5-0.1,3.7-0.1
	c1.3,0,2.6-0.1,3.8-0.2c1.2-0.1,2.4-0.3,3.6-0.7c-2.7,0-5.3,0.1-7.7,0.3c-2.3,0.2-4.7,0.1-6.9-0.3c0.4-0.4,1-0.7,1.8-0.7
	c0.7-0.1,1.4-0.2,1.8-0.2c6.2-0.2,12.5-0.2,18.8,0.2c6.2,0.3,12.1,0.3,17.6-0.2c0.2-0.2,0.3-0.6,0.2-1c-0.1-0.4,0-1,0.2-1.7
	c-1.4,0-2.6,0-3.7,0c-1,0-2,0-2.9-0.1c-0.9-0.1-1.8-0.1-2.8-0.2C126.9,192.1,125.8,192.1,124.6,191.9z M135,124.6
	c0.2,0.2,0.7,0.3,1.5,0.2c0.7-0.1,1.3,0,1.7,0.2c0.2-0.4,0.2-0.9,0.2-1.3c-0.1-0.5-0.2-0.9-0.2-1.3c-7.1-0.8-14.2-1.2-21.3-0.9
	c-7.1,0.2-14,0.4-20.6,0.4c-0.2,0.2-0.2,0.6-0.1,1c0.2,0.4,0.2,0.8,0.1,1.3c1,0.5,2.4,0.8,4.2,0.9c1.7,0.1,3.7,0.1,5.7,0
	c2-0.1,4.1-0.2,6.1-0.2c2-0.1,3.8,0,5.2,0.2c0.8,0.1,2,0.2,3.5,0.2s3,0,4.6-0.1c1.6-0.1,3.2-0.1,4.7-0.2s2.9-0.2,4-0.4
	c-0.2-0.4-0.4-0.8-0.5-1.1c-0.1-0.3,0.1-0.7,0.5-1.1c0,0.4,0,0.8,0.1,1.1C134.7,123.8,134.8,124.2,135,124.6z M132.8,136
	c-2.9,0.1-6.1,0.1-9.3-0.1c-3.3-0.2-6.6-0.2-9.7-0.3c-3.2-0.1-6.3-0.2-9.3-0.2s-5.7,0.2-8,0.5c-0.2,0.9,0,1.5,0.8,1.7
	c0.8,0.2,1.4,0.2,1.9,0.2c5,0,10.3-0.1,15.9-0.2c5.6-0.2,10.7-0.2,15.5-0.2c0.3,0,0.7,0.1,1.2,0.2c0.5,0.1,1,0.2,1.5,0.2
	c0.5,0,1-0.1,1.3-0.2c0.4-0.2,0.7-0.5,1-0.9c-0.2-0.4-0.7-0.6-1.4-0.5C133.4,136,132.9,136,132.8,136z M97.7,133.2h-1.3v0.9
	c0,0.2,0.3,0.2,0.9,0.2s0.9-0.1,0.9-0.2C97.8,134.2,97.7,133.9,97.7,133.2z M134.6,138.2H96.4v3.2c1.4-0.2,2.8-0.3,4.3-0.2
	s3.1,0.2,4.7,0.2c5.5,0.2,11,0.2,16.5,0.2c5.6-0.1,11-0.2,16.2-0.7v-1.8c-0.2-0.2-0.5-0.3-0.7-0.6c-0.2-0.2-0.6-0.3-1-0.3
	s-0.7,0.2-0.7,0.7c0,0.5-0.1,0.7-0.2,0.7c0-0.2-0.1-0.6-0.2-0.9C135.3,138.4,135,138.2,134.6,138.2z M96.4,149.6v0.9h29.5
	c3.7,0.1,7.5,0.2,11.4,0.2c4,0.1,8,0.1,11.9,0.2c3.9,0.1,7.7,0.2,11.4,0.2s6.9,0.2,9.9,0.2c0.2,0,0.6,0.1,1,0.2
	c0.4,0.2,0.9,0.2,1.3,0.2c0.5,0.1,0.9,0,1.2-0.2s0.5-0.4,0.5-0.8c-1.7-0.4-3.8-0.7-6.4-0.7c-2.7-0.1-5.3-0.2-8.2-0.2
	c-10.1,0-20.5-0.1-31.3-0.2s-21.5-0.4-31.9-0.7C96.5,149.1,96.4,149.3,96.4,149.6z M129.1,155.5c0.9,0.2,1.3,0.3,1.2,0.2
	C130.3,155.5,129.9,155.5,129.1,155.5c-4.8,0-9.7-0.2-14.6-0.4c-4.8-0.3-9.6-0.4-14.1-0.4c-0.7,0-1.5,0-2.4-0.1s-1.4,0.2-1.7,0.6
	c5.5,0.4,11,0.7,16.5,0.7C118.5,155.9,123.9,155.8,129.1,155.5z M133.2,227.9c-1.8-0.2-3.6-0.4-5.2-0.4c-1.7-0.1-3.4-0.1-5.2-0.1
	c-3.2,0-6.4,0-9.7-0.1c-3.2-0.1-6.2-0.2-9.1-0.3c-0.5,0-1.2,0-1.9-0.1s-1.6,0-2.3,0.1c-0.7,0.1-1.5,0.2-2.1,0.5
	c-0.6,0.2-1,0.7-1.3,1.3c0.4-0.2,0.7-0.2,0.6,0c-0.1,0.2,0.1,0.4,0.3,0.4c0.7,0,1.2-0.2,1.3-0.7c0.2-0.4,0.5-0.7,0.9-0.7
	c0.4,0,0.7,0.2,0.7,0.7c0.1,0.4,0.2,0.7,0.7,0.7c6.6-0.2,13-0.2,19.3,0c6.2,0.2,12.7,0.1,19.3-0.4c-0.7-0.9-1.7-1.3-3-1.2
	C135.3,227.8,134.1,227.9,133.2,227.9z M128.6,236.5c-0.7,0-1.3-0.2-2-0.4c-0.7-0.3-1.3-0.4-2-0.4c-4.4-0.2-9-0.1-13.8,0.2
	c-4.7,0.3-9.5,0.2-14.1-0.2c-0.2,0.2-0.2,0.7-0.2,1.1c0,0.5,0.1,0.7,0.2,0.7c3.7-0.1,7.3-0.1,11.1-0.1c3.7,0.1,7.4,0.1,11.1,0.2
	c3.7,0.1,7.3,0.1,10.8,0.1c3.6-0.1,7-0.2,10.2-0.6c-1.7-0.4-3.4-0.6-5.4-0.4S130.7,236.7,128.6,236.5z M137.4,233.7
	c-7.7-0.2-14.9-0.3-21.7-0.4s-13.1-0.2-18.9-0.5l-0.2,0.2c0,0.2,0.1,0.3,0.2,0.4v0.4c7.1,0.4,14.3,0.7,21.6,1s14.6,0.2,21.6-0.1
	c0-0.7-0.3-1-1-1C138.4,233.7,137.8,233.7,137.4,233.7z M96.8,201.5c-0.2,0.7-0.1,1.2,0.2,1.6c0.3,0.3,0.4,0.7,0.2,1.2
	c3.4,0.2,6.7,0.2,10-0.2c3.2-0.2,6.6-0.4,10.1-0.4c2.9,0,6.2-0.1,9.7-0.2c3.6-0.1,6.8-0.3,9.7-0.7v-1.3c-7-0.2-13.6-0.4-20-0.5
	C110.6,200.9,103.9,201,96.8,201.5z M134.1,126h-5.5H96.8c0,0.2,0.1,0.5,0.2,0.9c0.2,0.4,0.2,0.8,0.2,1.3c6-0.2,12.2-0.2,18.7,0.1
	c6.5,0.2,12.8,0.2,19-0.1c0-0.2,0-0.4-0.1-0.7s0.2-0.5,0.6-0.7c0,0.2,0,0.4,0.1,0.7c0.1,0.3,0.2,0.5,0.3,0.5c0.4,0,0.7,0.1,1,0.2
	c0.2,0.2,0.7,0.1,1.3-0.2c-0.2-0.4-0.3-0.8-0.2-1.3c0.1-0.4,0-0.7-0.2-0.9c-0.2,0.2-0.6,0.2-1.3,0c-0.7-0.2-1.2-0.1-1.4,0.4
	c-0.2,0-0.3-0.1-0.4-0.2C134.5,126.1,134.4,126,134.1,126z M134.6,198.3c-0.7,0-1.3-0.1-2-0.2c-0.7-0.2-1.2-0.2-1.7-0.2
	c-5.7,0-11-0.1-15.9-0.2c-4.8-0.1-9.9,0.1-15.1,0.5c-0.4,0-1,0-1.7-0.1c-0.7-0.1-1.2,0.2-1.5,1c0,0.2,0.2,0.3,0.6,0.3
	c0.4-0.1,0.3,0.2-0.1,0.6c2.8-0.2,5.9-0.3,9.2-0.3c3.3,0.1,6.7,0.1,10.2,0.2c3.5,0.1,7,0.1,10.6,0c3.5-0.1,6.9-0.3,10.1-0.7
	c0-0.7-0.3-1-1-1C135.6,198.2,135,198.3,134.6,198.3z M100.4,205.5c-0.4,0-1.1-0.1-1.9-0.2s-1.4,0.2-1.7,1.2
	c7.1,0.4,14,0.7,20.7,0.7c6.7,0.1,13.1,0.2,19.3,0.2v-2.2c-2.7-0.2-5.7-0.4-8.7-0.4c-3.1,0-6.2,0.1-9.4,0.2
	c-3.2,0.1-6.4,0.2-9.5,0.3C106,205.4,103.1,205.5,100.4,205.5z M118.6,241.1c-3.8,0-7.3-0.2-10.6-0.4c-3.2-0.2-7-0.2-11.3,0
	c3.5,0.2,7.2,0.3,11.1,0.5C111.8,241.3,115.4,241.3,118.6,241.1z M97.3,208.3c0,0.7,0.1,1.2,0.2,1.5s0.1,0.6-0.2,0.8h35.9
	c0.2,0,0.6,0.1,1,0.2c0.4,0.1,0.8,0.1,1.2,0.1c0.4-0.1,0.7-0.2,1-0.4s0.2-0.7,0-1.2c-3.2-0.2-6.3-0.4-9.4-0.6
	c-3.1-0.2-6.2-0.2-9.3-0.3c-3.2-0.1-6.4-0.2-9.7-0.2C104.6,208.1,101,208.2,97.3,208.3z M97.3,211.9v2.3c6.4,0,13.1-0.1,19.9-0.3
	c6.8-0.2,13.2-0.4,19.2-0.6c-0.2-0.2-0.7-0.3-1.1-0.3c-0.5,0.1-0.7-0.2-0.7-0.6c0.1-0.2,0.2-0.3,0.4-0.2c0.2,0.1,0.4,0.2,0.6,0.2
	c0.2,0.1,0.3,0.1,0.5,0.1c0.2,0,0.2-0.2,0.2-0.5c-5.5-0.4-11.5-0.5-18.1-0.3C111.6,211.8,104.7,211.9,97.3,211.9z M131.4,215.2
	c-3.2,0-6.2,0-9-0.1c-2.7-0.1-5.5-0.1-8.2,0c-2.7,0.1-5.4,0.2-8.1,0.2c-2.7,0.2-5.5,0.3-8.5,0.7c2.6,0.3,5.3,0.5,8.2,0.5
	c2.8,0,5.7-0.1,8.5-0.2c2.8-0.2,5.7-0.2,8.6-0.3c2.8-0.1,5.7-0.1,8.5,0c0.4,0,0.9,0.1,1.6,0.2c0.6,0.2,1.2,0.2,1.7,0.2
	c0.5,0.1,1,0,1.4-0.2c0.4-0.2,0.7-0.4,0.7-0.8c-0.7-0.7-1.6-0.9-2.5-0.7C133.3,215,132.3,215.2,131.4,215.2z M132.3,217.4
	c-2.6-0.1-5.4-0.2-8.3-0.2s-5.9,0.1-8.9,0.2c-3,0.1-6,0.2-9,0.3c-3,0.2-5.8,0.3-8.4,0.6c0.4,0.4,1.1,0.7,1.9,0.6s1.6-0.1,2.2-0.1h25
	c1.8,0,3.6,0,5.3,0.1s3.3-0.2,4.7-0.6c-0.7-0.4-1.4-0.7-2.2-0.7C133.7,217.4,132.9,217.4,132.3,217.4z M98.6,134.2
	c3.3,0.1,6.3,0.2,9.1,0.2c2.7,0.1,5.5,0.1,8.2,0.2c2.7,0.1,5.7,0.2,8.8,0.2c3.1,0.1,6.7,0.2,10.8,0.2c-0.2-0.4-0.4-0.7-0.4-0.9
	c-0.1-0.2-0.1-0.5-0.1-0.9c-3.6-0.1-6.9-0.2-10-0.3s-6.1-0.2-9-0.2s-5.8,0.1-8.7,0.2c-2.9,0.2-6,0.3-9.2,0.7v0.5L98.6,134.2
	L98.6,134.2z M133.2,221c-5-0.7-10.1-1-15.2-0.8c-5.1,0.2-9.7,0.4-13.9,0.8c-0.5,0-1.2-0.1-1.8-0.2c-0.7-0.1-1.3-0.1-1.9-0.1
	c-0.6,0.1-1.1,0.2-1.5,0.4c-0.4,0.2-0.6,0.7-0.6,1.2c0.2,0.4,0.5,0.6,1.1,0.4c0.6-0.2,0.9,0,1.1,0.4c2.4-0.1,5-0.2,7.7-0.2
	c2.7-0.1,5.4-0.1,8.1-0.1c2.7,0,5.2,0,7.7,0c2.5,0,4.7-0.1,6.6-0.2c1.2,0,2.4,0.1,3.7,0.2c1.2,0.1,2.3-0.1,3.2-0.5
	c-0.2-0.9-0.8-1.4-1.7-1.4C134.7,221,133.9,221,133.2,221z M103.2,230.7c-0.7,0-1.5-0.1-2.4-0.2c-0.9-0.2-1.4,0.2-1.7,1.1
	c7,0.2,13.7,0.4,20.1,0.7c6.3,0.2,13.1,0.5,20.4,0.7v-2.2C126.5,230.1,114.4,230.1,103.2,230.7z M99.5,89.1c0.7,0.4,1.7,0.8,2.9,1.2
	c1.2,0.3,2.1,0.7,2.5,1.2c5.3-0.2,10.6-0.2,16.1,0.2c5.4,0.3,10.8,0.3,16.3-0.2v-2.3c-6,0-12.3,0.1-18.9,0.2
	C111.8,89.4,105.5,89.3,99.5,89.1z M123.1,224.3c-1.6-0.2-3.5-0.2-5.8-0.1c-2.3,0.2-4.4,0.2-6.4,0.1c-2.1,0-4.2,0-6.2-0.1
	c-2-0.1-3.6,0.4-4.7,1.3c5.5,0,10.7,0.2,15.9,0.6c5.2,0.4,10.2,0.3,15-0.1c-1.4,0-2.7-0.2-3.9-0.7
	C125.9,224.8,124.5,224.4,123.1,224.3z M100.4,238.8c-0.1,0-0.2,0.1-0.2,0.2c0,0.1,0.1,0.2,0.2,0.2c7.1-0.2,14-0.1,20.7,0.4
	c6.7,0.4,13.1,0.3,19.3-0.4c-3.7-0.2-7.1-0.4-10.4-0.4c-3.3-0.1-6.6-0.1-9.7-0.1c-3.2,0-6.4,0-9.7,0.1
	C107.4,238.8,104,238.8,100.4,238.8z M105.5,147.8c4.3,0,8.6,0.2,12.6,0.5c4.1,0.3,8.2,0.3,12.3-0.2c-4.6-0.2-9-0.3-13.2-0.5
	C113.1,147.5,109.1,147.5,105.5,147.8z M123.1,245.6c-1.6,0.2-3.1,0.3-4.6,0.2c-1.5-0.2-3.1-0.3-4.9-0.5c1.4-0.4,3-0.5,4.7-0.2
	C120.2,245.1,121.8,245.4,123.1,245.6z M119.1,241.1c3.2,0.2,6.8,0.4,10.9,0.5c4.1,0.1,7.7-0.1,10.9-0.5c-3.7,0.2-7.2,0.2-10.9,0.1
	C126.4,240.9,122.8,240.8,119.1,241.1z M122.2,170.1c0.2-0.2,0.2-0.3-0.1-0.4c-0.2-0.1-0.4-0.2-0.7-0.2s-0.7,0.1-1,0.2
	c0.4,0,0.7,0.1,0.9,0.2C121.5,170,121.8,170.1,122.2,170.1z M130.4,169.7c-1.2,0.2-2.4,0.2-4,0c-1.5-0.2-2.7-0.1-3.7,0.4
	c1,0,2.2,0.1,3.4,0.2c1.2,0.1,2.5,0.2,3.7,0.2c1.3,0.1,2.5,0.1,3.7,0.1c1.2,0,2.2-0.2,3.2-0.4c-0.3-0.4-0.7-0.7-1.2-0.7
	c-0.5-0.1-1-0.1-1.6-0.1c-0.6,0.1-1.2,0.2-1.7,0.2C131.6,169.6,131,169.7,130.4,169.7z M123.1,196.5c0.2,0.2,0.6,0.3,1,0.2
	s1-0.2,1.7-0.2c-0.3-0.1-0.7-0.2-1-0.2c-0.3,0-0.6,0-0.8,0S123.5,196.4,123.1,196.5z M128.6,196.5c-0.2,0-0.6-0.1-1.1-0.2
	c-0.6-0.1-0.9-0.1-1.1,0.2c0.4,0,0.8,0.1,1.3,0.2C128.1,196.8,128.5,196.7,128.6,196.5z M131.4,224.7c1.4,0.2,2.4,0.5,3.2,0.7
	c0.7,0.2,1.8,0.4,3.2,0.7c-0.4-0.9-1.3-1.6-2.6-1.9C133.9,223.8,132.5,223.9,131.4,224.7z M133.7,116.3c0.7-0.2,1.6-0.2,2.6,0
	c1,0.2,1.7,0.1,1.9-0.4v-0.5c-0.3,0-0.8-0.1-1.3-0.2c-0.6-0.2-1.1-0.2-1.7-0.2c-0.5,0-0.9,0.1-1.3,0.2
	C133.6,115.5,133.5,115.8,133.7,116.3z M135.9,131.8c0.4,0,0.8,0.1,1.3,0.2c0.4,0.2,0.7,0.1,1-0.2v-2.2h-2.7c0,0.7-0.1,1.2-0.2,1.3
	S135.4,131.4,135.9,131.8z M135.5,134.6c0.4,0,0.9,0.1,1.5,0.2c0.6,0.1,1-0.1,1.2-0.5c-0.2,0-0.4-0.2-0.5-0.4
	c-0.1-0.3-0.2-0.4-0.4-0.4c-0.7,0-1.2,0.1-1.4,0.2C135.6,133.5,135.5,133.9,135.5,134.6z M135.5,136.9c0.2,0.2,0.6,0.2,1.3,0.2
	c0.7,0,1.2-0.1,1.4-0.2c-0.2,0-0.3-0.1-0.2-0.3c0.2-0.2,0.2-0.4,0.2-0.6c-0.4,0-1,0-1.7-0.1C135.9,135.9,135.5,136.2,135.5,136.9z
	 M137.7,62.3c0.2-0.4,0.4-1.2,0.4-2.5c0-1.2-0.2-2.1-0.4-2.5c0,0.6-0.1,1.2-0.2,1.7c-0.2,0.5-0.3,1-0.4,1.4
	c-0.2,0.4-0.2,0.8-0.1,1.1C137,61.8,137.3,62,137.7,62.3z M137.7,167.8c0-0.4,0.1-0.7,0.2-1s0.2-0.7,0.2-1.3h-0.9
	c0,0.4,0,0.8,0.1,1.3C137.4,167.3,137.5,167.6,137.7,167.8z M138.6,187.3v-1.8c-0.2-0.2-0.3,0.1-0.4,0.7
	C138,187,138.2,187.3,138.6,187.3z M145.9,62.7h0.5c-1.2,0.2-2.5,0.3-3.8,0.2c-1.3-0.2-2.5-0.1-3.4,0.4c5.7-0.2,11.5-0.3,17.2-0.2
	s11.4-0.1,16.8-0.7c-2.1,0-4.3,0-6.7,0.1c-2.4,0.1-4.9,0.1-7.3,0.2c-2.5,0.1-4.8,0.1-7.2,0.2C149.7,62.7,147.7,62.7,145.9,62.7z
	 M194.1,68.2c-9.6-0.6-18.8-0.7-27.8-0.4c-9,0.3-18.1,0.4-27.1,0.4c0.1,0.7,0.3,1.2,0.7,1.4c0.4,0.2,0.8,0.4,1.3,0.5
	c0.5,0.1,1,0.1,1.6,0c0.5-0.1,0.9-0.2,1.3-0.2c2.2,0,4.4-0.1,6.4-0.2c2-0.2,3.8-0.2,5.4-0.2c3.9,0.1,7.6,0.2,11,0.2
	c3.4,0.1,6.7,0.1,10.1,0.1c3.3,0,6.6,0,10-0.1c3.3-0.1,6.8-0.1,10.5-0.2c-0.2-0.7-0.7-1.1-1.5-1.2C195.3,68.2,194.6,68.2,194.1,68.2
	z M141.3,71.8c3.9,0,7.7,0,11.6-0.1c3.8-0.1,7.7-0.2,11.6-0.3c-0.1,0-0.2-0.1-0.2-0.2c-0.1,0-0.2,0-0.2-0.1s-0.1,0-0.2,0.2
	c-2.2-0.2-4.7-0.4-7.2-0.4c-2.6,0-5.2,0.2-7.7,0.4c-1.4,0-2.7-0.1-4-0.2c-1.3-0.2-2.6-0.1-3.7,0.2c-0.2,0-0.4,0.1-0.7,0.2
	s-0.5,0.3-0.5,0.7c0.2,0,0.4-0.1,0.7-0.2C140.9,71.9,141.2,71.8,141.3,71.8z M141.3,232.8c-0.2-0.7-0.2-1.2-0.2-1.7s0-0.7-0.2-1
	c0,0.2-0.1,0.6-0.2,0.8c-0.2,0.3-0.2,0.6-0.3,0.8c-0.1,0.2-0.1,0.5,0.1,0.7C140.7,232.7,140.9,232.8,141.3,232.8z M141.3,235.2
	c0-0.2,0.1-0.6,0.2-0.9s-0.1-0.5-0.5-0.5C140.9,234.7,141.1,235.2,141.3,235.2z M141.3,80.9c0.2-0.4,0.5-0.8,0.8-1.1
	c0.3-0.3,0.3-0.7,0.1-1.1h-0.9c0,0.2-0.1,0.6-0.2,1.1C141.2,80.3,141.2,80.7,141.3,80.9z M141.3,76.9c0.2,0,0.3,0.2,0.2,0.8
	c-0.2,0.6-0.1,0.7,0.4,0.4c0.2,0,0.2-0.2,0.3-0.6c0.1-0.4,0.1-0.8,0.1-1.2C141.7,76.3,141.3,76.5,141.3,76.9z M141.8,90.9
	c0-0.9,0-1.8,0.1-2.7c0.1-0.8-0.2-1.7-0.6-2.7c0.2,0.9,0.3,1.9,0.2,2.9C141.5,89.4,141.6,90.2,141.8,90.9z M141.8,128.2
	c0-0.4,0-0.8-0.1-1.3c-0.1-0.4-0.2-0.7-0.4-0.9c0,0.4,0.1,0.8,0.2,1.3C141.8,127.7,141.8,128,141.8,128.2z M141.3,129.7
	c0,0.9,0.2,1.8,0.4,2.7c0.3,0.8,0.4,1.7,0.4,2.7c0,0.4-0.1,1-0.2,1.7c-0.1,0.7-0.1,1.4-0.1,2.2c0.1,0.7,0.2,1.3,0.4,1.9
	s0.7,0.9,1.2,1c0-1.8-0.2-3.9-0.6-6.4c-0.4-2.4-0.8-4.6-1.2-6.4C141.8,129.7,141.7,129.9,141.3,129.7z M141.8,154.2
	c0.9,0.2,1.7,0.1,2.2-0.2c0.5-0.3,1-0.7,1.4-1.2c0.2,0.2,0.3,0.6,0.4,0.9s0.2,0.5,0.5,0.5c2.7-0.4,5.8-0.7,9.2-0.6
	c3.3,0.1,6.5,0.1,9.4,0.1c-0.4,0-0.8-0.2-1.3-0.5c-0.4-0.3-0.7-0.6-0.9-0.7c-1.5-0.1-3.2-0.2-5-0.2s-3.7-0.2-5.7-0.2
	c-1.9-0.1-3.7-0.1-5.5-0.1c-1.7,0-3.3,0-4.7,0c-0.2,0.2-0.2,0.6-0.1,1C142,153.4,142,153.8,141.8,154.2z M142.3,84.1
	c0-0.4,0-0.8-0.1-1.3c-0.1-0.4-0.2-0.7-0.3-1c0,0.4,0,0.8,0.1,1.2C142,83.3,142.1,83.7,142.3,84.1z M142.8,173.7
	c-0.2,2.1-0.5,4.7-0.7,7.7c-0.2,3.1-0.2,6.2-0.2,9.2c0,0.2,0.2,0.2,0.4,0.2c0.3,0,0.4,0.2,0.4,0.7c0,0.3-0.1,0.7-0.2,1
	c-0.2,0.3-0.2,0.7-0.3,1c-0.1,0.3-0.1,0.7,0.1,1c0.2,0.3,0.4,0.5,0.8,0.6c0.2-3.2,0.5-6.2,0.7-9.2c0.2-2.9,0.3-5.8,0.4-8.7
	c0.1-2.9,0.1-5.9,0.1-8.9c-0.1-3-0.1-6.2-0.2-9.7c-0.9,2.7-1.3,5.7-1.2,8.9c0.2,3.2,0.2,6.2,0.2,9.3c-0.4-0.4-0.6-1-0.5-1.7
	C142.8,174.7,142.8,174.2,142.8,173.7z M142.3,197c0,1.2,0,2.1,0.1,2.8c0.1,0.7,0.1,1.5,0.1,2.2c0,0.7,0,1.4-0.1,2.1
	c-0.1,0.7-0.2,1.5-0.4,2.3c0.4,0,0.7,0.2,0.7,0.7c0,0.5,0.2,0.7,0.7,0.7c0-2.1,0.1-3.9,0.2-5.4c0.2-1.5,0.1-3.5-0.2-6.1
	C143.2,196.8,142.8,197,142.3,197z M141.8,210.6c0.4,0.3,0.7,0.8,0.7,1.4c0.1,0.6,0.1,1.2,0.1,1.9c-0.1,0.7-0.1,1.3-0.1,1.9
	c0,0.6,0.2,1.1,0.5,1.4c0-1.8,0.1-3.3,0.2-4.6c0.1-1.2-0.1-2.4-0.5-3.7c-0.2,0-0.3,0.2-0.3,0.7C142.5,210.4,142.3,210.6,141.8,210.6
	z M142.3,232.8h1.8c0-0.9-0.2-1.7-0.6-2.2c-0.4-0.5-0.9-0.5-1.7-0.1c0.2,0.2,0.2,0.6,0.2,1.1C142,232.3,142.1,232.7,142.3,232.8z
	 M142.3,235.6c0.4-0.2,0.8-0.2,1.1-0.2c0.3,0.1,0.5,0,0.7-0.2v-0.9c-0.4-0.4-0.9-0.5-1.6-0.2C141.9,234.4,141.8,234.9,142.3,235.6z
	 M142.3,123.7c0.2,0.2,0.4,0.7,0.4,1.1c0.1,0.5,0.1,1,0.1,1.6s0.1,1.2,0.2,1.7c0.2,0.6,0.3,1.2,0.7,1.6c0.2-6.4,0.2-12.6,0.3-18.5
	c0.1-5.9,0.1-12.1,0.1-18.5v-1.3c-0.2,1.2-0.2,2.2-0.2,3.1s0,2-0.2,3.2c-0.2-1-0.3-2-0.3-2.9c0.1-0.9,0.1-1.8,0.2-2.7
	c0.1-0.9,0.1-1.7,0-2.6c-0.1-0.8-0.3-1.7-0.7-2.7c-0.2,5.7-0.4,11.7-0.4,18.1C142.3,111.3,142.3,117.5,142.3,123.7z M143.2,160.9
	c0-0.4-0.1-0.8-0.2-1.2c-0.1-0.4-0.3-0.6-0.7-0.6c0,0.2,0.1,0.7,0.2,1.1C142.5,160.7,142.8,160.9,143.2,160.9z M142.3,236.5v0.9
	c0.4,0,0.9,0,1.5,0.1c0.6,0.1,0.8-0.2,0.8-1c-0.4,0-0.7,0.1-1,0.2C143.4,236.8,142.9,236.7,142.3,236.5z M142.3,238.8
	c0,0.3,0.2,0.6,0.4,0.7c0.3,0.2,0.6,0.2,0.9,0.2c0.3-0.1,0.6-0.2,0.9-0.2c0.3-0.2,0.4-0.3,0.4-0.6c-0.7-0.2-1.2-0.3-1.6-0.2
	C143.1,238.7,142.7,238.8,142.3,238.8z M145,73.2c-0.2,0-0.6-0.1-1.1-0.2c-0.6-0.1-0.9,0.1-1.1,0.5c0.4-0.2,0.9-0.2,1.4-0.2
	C144.8,73.5,145,73.4,145,73.2z M145,241.6v-0.5h-2.2c0,0.4,0.2,0.6,0.7,0.4C144.1,241.2,144.6,241.3,145,241.6z M143.2,221h0.5
	v-1.3c-0.4,0-0.6,0.2-0.4,0.5C143.5,220.6,143.4,220.8,143.2,221z M144.1,85.5c-0.2-0.2-0.2-0.5-0.2-1.1s0-0.9-0.2-1.1
	c0,0.4-0.1,0.8-0.2,1.3C143.5,85,143.7,85.3,144.1,85.5z M153.2,233.3c-1.4-0.2-2.7-0.7-4-1.4c-1.3-0.7-2.5-0.8-3.7-0.4
	c-0.2,0-0.4-0.2-0.5-0.6s-0.2-0.3-0.4,0.1c0.2,0,0.2,0.2-0.1,0.8c-0.2,0.6-0.2,1.1,0.1,1.5c1.4-0.2,2.9-0.2,4.6-0.1
	C150.9,233.5,152.2,233.5,153.2,233.3z M165.9,141c-0.4,0-1-0.1-1.8-0.2c-0.8-0.1-1.5-0.2-2.2-0.2c-1.3,0.3-2.7,0.6-4.2,0.6
	c-1.5,0.1-3,0.1-4.6,0.2c-1.6,0.1-3.1,0.2-4.6,0.5s-2.8,0.7-4,1.4c0.7,0.7,1.6,0.9,2.6,0.7c1-0.2,2.2-0.5,3.2-0.7c2.7,0,5.7,0,8.7,0
	c3,0,5.9-0.5,8.7-1.4c-0.4,0.4-0.7,0.4-0.9,0.1C166.6,141.6,166.4,141.2,165.9,141z M144.6,235.2c2.7,0.2,5.9,0.3,9.5,0.5
	c3.6,0.2,6.6,0.2,9.1-0.2c-1.6-0.3-3-0.6-4.4-0.7c-1.4-0.2-2.8-0.2-4.2-0.3c-1.4-0.1-2.9-0.2-4.5-0.2s-3.4-0.2-5.5-0.5
	c0.2,0.4,0.2,0.7,0.2,0.8S144.8,234.9,144.6,235.2z M145,237v0.4c3,0,6,0,8.7,0.1c2.8,0.1,5.3,0.2,7.6,0.4c0.7,0,1.5,0,2.4,0.1
	s1.5-0.2,1.7-1c-3.2,0.2-6.6,0.2-10.1-0.1C151.9,236.7,148.4,236.7,145,237z M151.3,238.8c-0.9,0-1.9-0.1-2.9-0.3
	c-1-0.2-2,0-2.9,0.7c2.5,0.4,5,0.7,7.3,0.7c2.4,0.1,4.5,0.2,6.3,0.2c1.2,0,2.3-0.1,3.5-0.2c1.2-0.1,2.2-0.3,2.8-0.7
	c-2.2-0.2-4.5-0.2-6.7-0.3S154.2,238.8,151.3,238.8z M154.6,241.1h-8.7c0.9,0.2,2.4,0.4,4.3,0.4
	C152.2,241.4,153.7,241.3,154.6,241.1z M149.2,230.7c-0.2,0-0.5-0.1-0.7-0.2c-0.2-0.2-0.4-0.1-0.7,0.2c-0.2,0.2,0,0.2,0.6,0.2
	S149.2,230.8,149.2,230.7z M157.7,147.3c-3.8-0.4-7.2-0.4-10,0c2.1,0.4,4.5,0.7,7.2,0.7c2.7,0.1,5.3,0.2,7.9,0.2
	c-0.4-0.7-1.2-1-2.2-1C159.7,147.3,158.7,147.3,157.7,147.3z M161,146.4c0.2,0,0.7,0,1.1,0.1c0.5,0.1,1,0.1,1.7,0.1
	c0.6,0,1.2,0,1.7-0.1c0.5-0.1,0.8-0.2,1.1-0.4c-1.2,0-2.2,0-2.9,0.1C162.8,146.1,161.9,146.2,161,146.4z M167.7,146.4
	c0.9,0.2,2,0.3,3.2,0.3c1.2-0.1,2.2,0.2,3.2,0.6c-0.7,0.4-1.6,0.7-2.5,0.6c-0.8-0.1-1.7-0.2-2.7-0.2c-0.9-0.2-1.7-0.2-2.6-0.2
	c-0.8,0-1.6,0.2-2.2,0.7c2.1,0,4.1,0.1,6.1,0.2c2,0.2,3.9,0.1,5.7-0.2c-0.2-0.2-0.5-0.2-1-0.2c-0.5,0-0.6-0.2-0.3-0.7
	c0.1-0.1,0.2-0.2,0.6-0.2c0.3-0.1,0.6-0.1,0.9-0.2c0.3-0.1,0.6-0.2,0.8-0.4c0.2-0.2,0.4-0.5,0.4-1c-0.7,0-1.5-0.1-2.4-0.2
	c-0.9-0.1-1.8-0.2-2.7-0.2c-0.9,0-1.7,0.1-2.6,0.2C168.8,145.6,168.1,146,167.7,146.4z M164.6,76.3c0.9-0.2,2.1-0.2,3.5-0.2
	s2.7,0.1,4.2,0.2h-1.8c-0.9,0-1.9,0.1-2.9,0.3C166.6,76.9,165.6,76.7,164.6,76.3z M166.5,66.3c0.7,0.2,1.2,0.2,1.3,0.1
	c0.2-0.2,0.5-0.2,0.9-0.1c0-0.2-0.3-0.2-1.1-0.2C166.9,66.1,166.5,66.2,166.5,66.3z M173.2,154.6c0.2-0.4,0.4-0.7,0.5-1
	s0.2-0.5,0.4-0.7c-1.4,0.2-2.7,0.2-3.7,0.1c-1.2-0.2-2.3-0.2-3.5-0.1c1.2,0.2,2.2,0.7,3.1,1.1C170.7,154.4,171.8,154.6,173.2,154.6z
	 M166.8,232.4c0.4,0,0.7,0.2,0.9,0.4c0.2,0.3,0.5,0.4,0.9,0.4c0-0.9,0.1-1.7,0.2-2.2c0.1-0.6-0.1-1.2-0.5-1.9
	C167.8,230,167.4,231.1,166.8,232.4z M171,141c-0.3,0.3-0.7,0.5-0.9,0.5c-0.2,0.1-0.3,0.1-0.5,0c0.2,0.2,0.6,0.3,1,0.4
	C171,142,171.1,141.6,171,141z M190.5,65.9c-0.2,0-0.2-0.2-0.2-0.4s-0.2-0.3-0.7-0.2c-2.7,0-5.7,0.1-8.9,0.3
	c-3.2,0.2-6.2,0.4-9.3,0.6c4.2,0,8.2,0.1,12,0.2s7.7,0.3,11.6,0.7c0.2-0.2,0.2-0.4,0.1-0.8c-0.2-0.4-0.6-0.7-1-1
	c-0.2,0.2-0.2,0.5,0.2,0.7c0.2,0.2,0.4,0.4,0.4,0.7c-0.4-0.4-0.9-0.7-1.5-0.7C192.6,66,191.7,65.9,190.5,65.9z M174.1,158.2
	c-0.4,0-0.8-0.2-1.1-0.4c-0.3-0.3-0.7-0.4-1.1-0.4c0,0.4,0.3,0.7,1,1C173.5,158.5,174,158.5,174.1,158.2z M172.3,241.1
	c0-0.2,0.2-0.3,0.4-0.4c0.3-0.2,0.4-0.4,0.4-0.8c-0.2,0-0.4-0.1-0.7-0.2c-0.2-0.2-0.5-0.2-0.7-0.2
	C171.9,240.1,172,240.7,172.3,241.1z M172.3,140.1c2.2,0,3.9-0.5,5-1.6c1.1-1,2.3-2,3.7-3c0.2-0.2,0.2-0.4-0.1-0.7s-0.2-0.5,0.1-0.7
	c0.9,0,1.6-0.2,1.9-0.5c0.3-0.3,0.7-0.7,1.2-0.9c0-0.4-0.2-0.7-0.4-0.7c-0.3,0-0.4-0.2-0.4-0.7c0.2-0.2,0.5-0.4,0.7-0.6
	c0.2-0.2,0.6-0.1,1,0.1c0-0.9,0.3-1.7,1.1-2.5c0.7-0.7,1-1.5,0.7-2.5c-2.2,2.5-4.7,4.8-7.2,7C177,135.1,174.5,137.6,172.3,140.1z
	 M174.6,76.3c0.8-0.3,1.9-0.5,3.1-0.6c1.2-0.1,2.5,0,3.7,0.1c1.3,0.1,2.6,0.2,3.7,0.2c1.2,0.1,2.3,0,3.4-0.1c0,0.6,0.2,0.9,0.5,0.9
	c-1.8,0-4.1-0.2-6.7-0.4C179.7,76.2,177.1,76.2,174.6,76.3z M174.6,154.6c0.4-0.2,0.8-0.2,1.1-0.2c0.3,0.1,0.7,0.2,1.1,0.2
	c0.2-0.2,0.4-0.5,0.4-1s-0.2-0.7-0.4-0.7c-0.2,0.2-0.2,0.6-0.2,0.9s0,0.5-0.2,0.5c-0.2-0.2-0.4-0.6-0.6-0.9
	c-0.2-0.3-0.4-0.5-0.8-0.5c0,0.2-0.1,0.5-0.2,0.7C174.7,153.8,174.6,154.1,174.6,154.6z M176,144.2c0.9,0,1.6,0.2,1.8,0.4
	c0.6-0.4,0.9-1,0.9-1.8c-0.9,0-1.6,0.2-1.9,0.4C176.5,143.4,176.2,143.8,176,144.2z M176.9,150c0.4-0.2,0.9-0.1,1.6,0.2
	c0.6,0.3,1,0.2,1.2-0.2c-0.4,0-1-0.1-1.8-0.3C177,149.5,176.6,149.6,176.9,150z M178.6,145.5c-0.2,0.2-0.3,0.4-0.6,0.6
	s-0.3,0.4-0.3,0.8c0.4,0.2,0.9,0.2,1.4,0.2c0.5,0,0.7,0.3,0.4,1c-0.4-0.2-0.8-0.2-1.3-0.2c-0.4,0.1-0.7,0-0.9-0.2
	c-0.2,0.3-0.2,0.6,0,0.7c0.1,0.1,0.2,0.2,0.4,0.2c1.8,0.4,4.1,0.7,6.8,0.7c2.7,0.1,5-0.1,6.8-0.3c-0.7-0.4-1.6-0.7-2.6-0.8
	c-1-0.2-2.2-0.2-3.2-0.2c-1.2,0-2.2-0.1-3.2-0.2c-1-0.1-1.7-0.3-2.2-0.7c1.2-0.1,2.3-0.1,3.2-0.1c0.9,0.1,1.8,0.1,2.7,0.2
	c0.8,0.1,1.7,0.1,2.5,0.1c0.8-0.1,1.7-0.2,2.8-0.6c-2-0.4-4.2-0.7-6.5-0.7C182.5,146.1,180.5,146,178.6,145.5z M186.4,152.4h-0.2
	c-0.1,0-0.1,0.1-0.1,0.2c0.1,0.1,0.2,0.2,0.3,0.2c0.7-0.4,1.4-0.6,2.2-0.5c0.7,0.1,1.8,0.2,3.2,0.2c-0.7-0.4-1.7-0.6-2.8-0.4
	c-1.2,0.2-2.4,0-3.5-0.4c-0.6,0.2-1.3,0.3-2.1,0.2c-0.7-0.2-1.6-0.2-2.4-0.4c-0.8-0.2-1.6-0.2-2.2-0.2c-0.7-0.1-1.2,0.1-1.5,0.4
	c1.6,0.4,3,0.7,4.3,0.6C183,152,184.6,152.1,186.4,152.4z M179.2,158.2c0.2-0.4,0-0.7-0.4-0.9c-0.5-0.2-0.9-0.2-1.3,0
	c0.4,0.2,0.7,0.6,0.9,0.8C178.5,158.4,178.7,158.5,179.2,158.2z M177.8,152.8c0,0.2,0.1,0.5,0.2,0.7c0.2,0.2,0.2,0.6,0.2,1
	c1.7-0.1,3-0.2,4.2-0.2c1.2-0.1,2.2-0.1,3.1-0.2c0.9-0.1,1.9-0.1,2.8-0.1s2.1,0,3.5,0c-1.8-0.7-4-1-6.6-1
	C182.8,153.1,180.3,153,177.8,152.8z M184.6,143.6c-0.7,0-1.6-0.2-2.5-0.4c-1-0.2-1.8-0.2-2.5,0c0,0.2-0.2,0.3-0.4,0.4
	c-0.3,0.2-0.4,0.4-0.4,0.8c2.2,0.2,4.4,0.4,6.4,0.6s4.1,0.1,6.4-0.1c-0.4-0.8-1.3-1.2-2.7-1.2C187.4,144.1,186,144,184.6,143.6z
	 M179.2,155.5c2.2,0.4,4.4,0.7,6.5,0.7c2.1,0.1,4.2,0.2,6.2,0.2c0.2-0.2,0.2-0.3,0.2-0.4c-0.1-0.2-0.2-0.4-0.2-0.8
	c-1.3,0-2.4,0-3.4-0.1c-0.9-0.1-1.9-0.1-2.8-0.1c-0.9,0-1.9,0-2.9,0.1C181.8,155.1,180.5,155.2,179.2,155.5z M179.5,156.9
	c0.4,0.2,0.7,0.4,0.7,0.8c0,0.4,0.1,0.7,0.2,1c0.4,0,0.9-0.1,1.3-0.2c0.5-0.2,0.9-0.1,1.3,0.2c-0.2-0.4-0.2-0.8-0.2-1.1
	c0.1-0.3,0-0.5-0.2-0.7c0,0.2-0.1,0.2-0.2,0.1c-0.2-0.2-0.2-0.3-0.2-0.6h0.5c-0.4,0.2-0.9,0.3-1.4,0.2
	C180.9,156.6,180.3,156.7,179.5,156.9z M180.5,141.9c1.4,0.2,2.7,0.5,3.9,0.7s2.5,0.2,3.9,0.2c0.1,0,0.2,0.1,0.6,0.2
	c0.3,0.1,0.7,0.2,1,0.2c0.3,0.1,0.7,0,1-0.1c0.3-0.1,0.5-0.3,0.6-0.7c-1.4,0-3.2-0.2-5.2-0.4C184,141.7,182.1,141.7,180.5,141.9z
	 M190.5,139.1c-0.9,0-1.9-0.2-2.9-0.4c-1-0.2-1.9-0.4-2.8-0.4c-0.9-0.1-1.7,0.1-2.3,0.3c-0.7,0.2-1.1,0.9-1.3,1.9
	c2.2,0.2,4.1,0.3,5.4,0.5c1.3,0.2,3,0.2,5-0.2c0.2,0,0.3-0.1,0.2-0.2c-0.2-0.2-0.1-0.2,0.4-0.2c0.2,0.4,0.7,0.7,1.3,0.8
	c0.7,0.2,1.4,0.2,2.2,0.2c0.8-0.1,1.7-0.1,2.6-0.2c0.9-0.1,1.7,0,2.4,0.1v-1.4c-1.2-0.2-2.4-0.3-3.7-0.4c-1.4-0.1-3-0.2-4.8-0.5
	c-0.2,0-0.3,0.2-0.2,0.4c0.1,0.3,0,0.4-0.2,0.4C191.4,139.4,191.1,139.1,190.5,139.1z M184.1,160.9c0-0.2-0.1-0.3-0.2-0.4
	c-0.2-0.1-0.2-0.2-0.2-0.5c-0.2-0.2-0.6-0.2-1-0.3c-0.4-0.1-0.8-0.1-1.3-0.1c0,0.7,0.2,1.1,0.8,1.2
	C182.8,160.9,183.4,160.9,184.1,160.9z M185,164.2c0-0.4-0.1-0.8-0.2-1.1c-0.2-0.3-0.2-0.5-0.2-0.7c-0.2,0-0.6-0.1-0.9-0.2
	c-0.3-0.2-0.5-0.1-0.5,0.2c0.4,0.2,0.7,0.4,0.9,0.8C184.3,163.6,184.6,163.9,185,164.2z M184.1,137.3c1.2,0.2,2.3,0.4,3.4,0.5
	c1.1,0.1,2.2,0.2,3.4,0.4c0-0.7,0.1-1.2,0.2-1.6c0.2-0.3,0.2-0.7,0.2-1.2c-0.9,0-1.8-0.1-2.6-0.2c-0.7-0.1-1.5-0.2-2.1-0.2
	s-1.2,0.2-1.6,0.4C184.7,136,184.4,136.6,184.1,137.3z M185.5,157.3v0.9c0.7,0.2,1.8,0.4,3.4,0.5s2.7-0.1,3.4-0.5v-0.9
	c-1.4,0-2.6-0.1-3.6-0.2C187.8,157.1,186.7,157.1,185.5,157.3z M185.9,159.7c-0.2,0.2-0.2,0.4,0.2,0.7c0.2,0.2,0.4,0.5,0.4,0.7
	c1.2,0,2.2,0.1,3.2,0.2c1,0.1,1.9-0.1,2.6-0.5V160c-0.9,0-2-0.1-3.2-0.2C187.9,159.7,186.9,159.7,185.9,159.7z M193.2,70.9
	c-0.9,0.2-2,0.2-3.2,0.1c-1.2-0.2-2.4-0.2-3.5-0.1c1.2,0.2,2.3,0.4,3.5,0.4C191.2,71.3,192.3,71.2,193.2,70.9z M186.9,134.2h4.2
	v-1.8c-0.9-0.4-1.7-0.4-2.5,0.1C187.9,132.9,187.3,133.5,186.9,134.2z M186.9,162.4c0,0.4,0.1,0.7,0.3,1c0.2,0.2,0.4,0.5,0.6,0.7
	c1.2,0,2.2,0,3.1,0c0.9,0,1.9,0,2.9-0.1c1-0.1,2-0.1,3.1-0.2c1-0.1,2.2-0.2,3.7-0.3v-1.3h-7.2c-0.2,0-0.2,0.1,0,0.2
	c0.2,0.2,0.1,0.4-0.4,0.7c-0.4-0.8-1.2-1.2-2.5-1C189.1,162.5,187.9,162.6,186.9,162.4z M189.2,177.8c-0.2-0.7-0.4-1.2-0.6-1.7
	s-0.4-0.8-0.8-1c0.2,0.4,0.4,0.9,0.6,1.3C188.4,177,188.8,177.4,189.2,177.8z M188.3,165.1c0,0.4,0.1,0.7,0.2,1
	c0.2,0.2,0.2,0.5,0.2,0.7h4.2V165c-0.7,0.2-1.4,0.2-2.1,0.2C190,165.2,189.2,165.1,188.3,165.1z M189.6,130.9h0.9
	c0-0.2,0-0.4-0.1-0.7c-0.1-0.3-0.2-0.5-0.3-0.5c0,0.4-0.1,0.7-0.2,0.8C189.7,130.6,189.6,130.7,189.6,130.9z M189.6,169.2
	c0.2,0.2,0.7,0.4,1.5,0.4c0.7,0.1,1.4,0.1,2.2,0.1v-1.4h-3.7V169.2L189.6,169.2z M191.4,173.3c0.2-0.2,0.5-0.3,0.7-0.2
	c0.2,0.2,0.4,0.2,0.7,0.2c0.2-0.2,0.2-0.6,0.2-1c-0.1-0.4-0.2-0.8-0.2-1.3c-0.3-0.2-1.2-0.4-2.7-0.4c0.2,0.7,0.4,1.2,0.7,1.3
	C191,172.2,191.2,172.6,191.4,173.3z M190.5,77.7c0.4,0,0.9,0.2,1.6,0.6c0.6,0.4,1,0.8,1.2,1.2c-0.2,0-0.6-0.2-1.2-0.7
	C191.4,78.3,190.9,78,190.5,77.7z M191.9,134.2c1.2,0.2,2.4,0.3,4,0.6c1.5,0.2,3.1,0.3,4.6,0.3v-2.3c-1.6,0-3-0.1-4.4-0.2
	s-2.7-0.4-4.2-0.7C191.3,132.8,191.3,133.6,191.9,134.2z M191.9,138.2c1.6,0,3,0.1,4.4,0.2c1.4,0.2,2.7,0.1,4.2-0.2V136
	c-1.6,0.2-3,0.2-4.4,0.1c-1.4-0.2-2.7-0.3-4.2-0.6c-0.2,0.2-0.4,0.7-0.4,1.2C191.5,137.3,191.7,137.8,191.9,138.2z M192.3,184.7
	c0-0.6-0.2-1-0.4-1.3c-0.2,0.2-0.3,0.4-0.2,0.7C191.9,184.4,192.1,184.7,192.3,184.7z M198.3,126.4c-0.9-0.2-1.9-0.2-3-0.2
	c-1,0.1-2,0-3-0.2v0.2c0,0.1-0.2,0.2-0.4,0.2v1.4c1.4,0,2.9,0.2,4.5,0.5c1.6,0.3,3,0.2,4.1-0.5c0.2-0.7,0.1-1.1-0.6-1.2
	C199.3,126.4,198.8,126.4,198.3,126.4z M191.9,129.1v1.8c1.4,0.2,2.7,0.4,4,0.4c1.2,0.1,2.8,0.1,4.6,0.1v-1.8c-1.6,0-3-0.2-4.4-0.4
	C194.7,129,193.3,128.9,191.9,129.1z M191.9,143.3c1.8,0,3.2,0,4.2,0.1c0.9,0.1,2.1-0.2,3.5-0.6c-1.2-0.2-2.4-0.2-4-0.2
	c-1.5,0.1-2.7,0-3.7-0.2L191.9,143.3L191.9,143.3L191.9,143.3z M191.9,145.5c1.2,0.2,2.6,0.4,4.3,0.5c1.7,0.1,3.2-0.1,4.3-0.5v-0.9
	c-1.6-0.2-3-0.2-4.4-0.2s-2.7,0-4.2-0.2L191.9,145.5L191.9,145.5z M191.9,147.3c0.2-0.2,0.5-0.2,1-0.2c0.5,0.1,0.7,0,0.7-0.2
	c-0.2,0-0.7-0.1-1.1-0.2C192.2,146.7,191.9,146.9,191.9,147.3z M191.9,149.1c1.6,0.2,3,0.3,4.4,0.2s2.7-0.3,4.2-0.5
	c-1.2-0.2-2.6-0.4-4.4-0.5C194.3,148.1,192.8,148.5,191.9,149.1z M193.2,175.5v-0.9h-1.3c0,0.2,0.1,0.6,0.3,0.8
	C192.4,175.8,192.8,175.8,193.2,175.5z M192.8,157.9c-0.3,0-0.5,0.1-0.5,0.2c-0.1,0.1-0.1,0.2,0,0.2c1.4,0.2,2.8,0.4,4.3,0.5
	s2.7-0.1,3.9-0.5c-1.2-0.4-2.4-0.6-4-0.5C195,157.8,193.8,157.9,192.8,157.9z M192.3,152.4c0.7,0,1.4,0,2.2,0.1
	c0.7,0.1,1.2-0.2,1.4-0.6c-0.7,0.2-1.4,0.3-2.2,0.2C193.1,151.8,192.6,152,192.3,152.4z M198.7,153.7h1.8c-0.7-0.1-1.5-0.2-2.3-0.2
	s-1.7-0.2-2.5-0.2c-0.7,0-1.6,0.1-2.2,0.2c-0.7,0.2-1,0.3-1.1,0.7c1.4,0,2.4,0,3.2-0.1C196.3,154.1,197.3,154,198.7,153.7z
	 M192.3,156.4c0.4,0,1.1,0.1,1.9,0.2c0.8,0.2,1.7,0.2,2.7,0.2c0.9,0,1.7-0.1,2.4-0.3c0.7-0.2,1.1-0.7,1.2-1.3c-1.6,0-2.9,0.1-4,0.2
	c-1.2,0.1-2.5,0.1-4.2-0.2L192.3,156.4L192.3,156.4z M192.8,120.5c0,0.2,0.1,0.4,0.2,0.7c0.2,0.2,0.2,0.5,0.2,0.7
	c0.7,0.2,1.6,0.3,2.7,0.2c1.2-0.1,2,0,2.7,0.2c0.2-0.2,0.4-0.5,0.4-0.7c0.1-0.2,0.1-0.6,0.1-1c-1.2,0-2.3-0.1-3.2-0.2
	C195,120.2,193.9,120.3,192.8,120.5z M192.8,125.1c0.9,0,2,0.1,3.2,0.2c1.2,0.2,2.4,0.2,3.5,0.2v-1.8c-0.5,0-1.2-0.1-1.9-0.2
	s-1.6-0.2-2.2-0.2c-0.7,0-1.3,0.2-1.8,0.4C193.1,123.8,192.8,124.3,192.8,125.1z M192.8,151c0.7-0.2,1.2-0.2,1.7,0s0.7,0.1,1-0.4
	c-0.4,0-0.9-0.1-1.6-0.2C193.3,150.4,193,150.5,192.8,151z M192.8,160v0.9c0.9,0,2.3,0.1,4,0.2c1.7,0.1,2.9-0.1,3.7-0.5
	c-1.4-0.4-2.7-0.7-3.8-0.6C195.5,160,194.2,160,192.8,160z M193.2,165.1v2.2h7.2v-2.2H193.2z M193.2,169.7c0.6,0,1.2,0.1,2,0.2
	c0.7,0.2,1.5,0.2,2.2,0.2c0.7,0.1,1.4,0,2.1-0.2c0.7-0.2,1.2-0.4,1.5-0.8c-0.3-0.3-0.8-0.6-1.5-0.7c-0.7-0.1-1.3-0.2-2-0.2
	c-0.7,0-1.4,0-2.1,0.1c-0.7,0.1-1.2,0-1.7-0.2c-0.2,0.2-0.3,0.4-0.2,0.6C193.6,168.9,193.5,169.3,193.2,169.7z M193.8,173.3
	c0.9,0.2,2,0.2,3.2,0.2c1.2-0.1,2.4-0.2,3.5-0.2v-1.8c-1.4,0-2.6-0.1-3.7-0.2c-1-0.2-2.2-0.2-3.7-0.2c0,0.4,0.1,0.8,0.2,1.2
	C193.7,172.5,193.8,172.8,193.8,173.3z M193.8,174.6c0.1,0.6,0.4,1,0.9,1.2c0.5,0.2,1.2,0.2,1.8,0.2s1.4,0,2.2-0.1
	c0.7-0.1,1.3,0,1.9,0.1c-0.1-0.7-0.3-1.2-0.7-1.4c-0.4-0.2-0.9-0.2-1.6-0.2c-0.6,0.1-1.3,0.2-2.1,0.3
	C195.3,174.9,194.5,174.8,193.8,174.6z M194.1,119.1c1.2-0.2,2.2-0.2,2.9-0.2c0.7,0.1,1.6,0.2,2.5,0.2c0.2-0.2,0.2-0.4,0.1-0.7
	c-0.2-0.2-0.2-0.5-0.1-0.7c-0.4,0.1-1,0.1-1.7,0.1c-0.7-0.1-1.2-0.1-1.8-0.1c-0.6,0-1,0.1-1.4,0.2
	C194.3,118.3,194.1,118.6,194.1,119.1z M194.1,177.3c0.4,0,0.9,0.1,1.6,0.2c0.6,0.2,1,0.1,1.2-0.2c-0.1,0-0.2-0.1-0.6-0.2
	c-0.3-0.1-0.6-0.2-0.9-0.2c-0.3-0.1-0.6-0.1-0.8-0.1C194.3,176.9,194.1,177.1,194.1,177.3z M194.7,179.2h-0.6v0.9
	c1.2,0,2.4,0.1,3.7,0.2c1.2,0.2,2.3,0.1,3.2-0.2c-0.2-0.5-0.6-0.8-1-1s-0.8-0.2-1.3-0.2c-0.5,0.1-1.2,0.2-1.8,0.2
	C196.2,179.3,195.4,179.3,194.7,179.2z M195.6,183.3c0.9,0,1.8,0.1,2.7,0.2c0.8,0.1,1.7,0.1,2.7-0.2v-1.4c-1.2,0-2.3-0.1-3.2-0.3
	c-0.9-0.2-2-0.1-3.1,0.3c0.2,0,0.3,0.2,0.6,0.5C195.4,182.7,195.6,183.1,195.6,183.3z M201,65.4c-0.9,0-1.8,0-2.7-0.1
	c-0.8-0.1-1.7,0.2-2.7,0.6c0.1,0.5,0.2,0.9,0.6,1.1c0.3,0.2,0.7,0.3,1.1,0.4c0.4,0.1,0.9,0.2,1.4,0.2s1,0.1,1.4,0.2
	c0.7,0,1.3-0.1,2-0.2c0.7-0.2,1.3-0.2,2-0.2c1.7,0,3.2,0.2,4.6,0.4c1.4,0.3,2.9,0.4,4.5,0.4h12.3c0.9,0,2-0.1,3.2-0.2
	c1.2-0.2,1.9-0.7,2.2-1.7c-4.6-0.4-9.5-0.7-14.7-0.7C211.2,65.5,206.1,65.4,201,65.4z M195.9,116.3c0.4,0,0.9,0.1,1.4,0.2
	c0.5,0.2,1.2,0.1,2.2-0.2c0-0.7-0.5-1.1-1.5-1.1c-1-0.1-1.8,0-2.5,0.2c0.2,0.2,0.2,0.4,0.2,0.5C195.7,116.1,195.8,116.2,195.9,116.3
	z M195.9,151h4.6c-0.4-0.7-1.2-1-2.2-0.8C197.2,150.2,196.3,150.5,195.9,151z M196.8,70.9c0.2,0.2,0.5,0.6,0.8,0.8
	c0.3,0.3,0.8,0.3,1.5,0.1c0-0.2-0.1-0.4-0.2-0.7s-0.2-0.5-0.2-0.7C197.8,70.5,197.2,70.7,196.8,70.9z M203.7,69.1
	c1.8,0.2,3.6,0.5,5.4,0.7c1.7,0.2,3.4,0.2,5-0.2c-2-0.7-4.5-1-7.6-0.9c-3.1,0.1-6,0.2-8.7,0.4c0.9,0.4,1.9,0.6,3,0.3
	C201.8,69.2,202.7,69.1,203.7,69.1z M198.3,185.2c0.7-0.2,1.2-0.2,1.7,0.2c0.4,0.3,0.7,0.3,1-0.2c-0.2-0.2-0.7-0.4-1.6-0.4
	C198.5,184.7,198.3,184.9,198.3,185.2z M204.2,71.8c-0.8-0.3-1-0.7-0.4-1.3h-4.2c0,0.2,0.1,0.3,0.2,0.4c0.2,0.2,0.1,0.4-0.2,0.8
	L204.2,71.8L204.2,71.8z M200.5,125.5c0.2-0.2,0.3-0.5,0.2-1c-0.2-0.5-0.3-0.7-0.5-0.7c-0.1,0.3-0.2,0.7-0.2,0.9
	C200,125.2,200.2,125.5,200.5,125.5z M201.9,73.2c0.2,0.7,0.6,1.2,1.2,1.4c0.6,0.2,1.2,0.4,1.9,0.4c0-0.2-0.1-0.5-0.2-0.7
	c-0.2-0.2-0.2-0.6-0.2-1c-0.2,0-0.7-0.1-1.4-0.2C202.5,72.9,202.1,73,201.9,73.2z M204.2,86.9c-0.2-0.2-0.4-0.5-0.7-0.7
	c-0.3-0.2-0.8-0.2-1.5-0.2c0.4-0.4,0.9-0.5,1.4-0.2C203.9,86.1,204.2,86.5,204.2,86.9z M206.8,83.2c-0.4,0-0.7-0.2-0.8-0.5
	c-0.2-0.3-0.2-0.7-0.4-0.9h-1.4c0.4,0.2,0.9,0.7,1.3,1.2C206,83.6,206.4,83.6,206.8,83.2z M204.7,60.9c0.9-0.2,1.7-0.2,2.2-0.1
	c0.6,0.1,1.2-0.2,1.8-0.8c-0.7,0-1.4,0.1-2.2,0.2C205.7,60.2,205.1,60.4,204.7,60.9z M204.7,76.3c0.2,0.2,0.4,0.6,0.8,0.8
	c0.4,0.3,0.7,0.3,1,0.1c-0.3,0-0.5-0.3-0.5-0.9c-0.2,0-0.4-0.1-0.7-0.2C205.1,76.2,204.8,76.2,204.7,76.3z M205.1,71.8
	c1.7,0,3.2,0.1,4.6,0.2c1.4,0.2,2.9,0.2,4.5,0.2c-0.2-0.4-0.2-0.7,0.2-0.7c0.2-0.1,0.4-0.2,0.4-0.7c-1.4,0-2.8,0-4.3-0.1
	s-3.2-0.2-5.3-0.3V71.8z M206.8,75.4c4.6,0,8.9,0.1,12.9,0.2c4,0.1,8.2-0.1,12.6-0.5c0-0.6-0.2-1.1-0.4-1.4
	c-2.7-0.2-5.4-0.2-7.9,0.2c-2.5,0.2-5.5,0.4-9,0.4c-0.2,0-0.2,0.2-0.2,0.4c0.1,0.3,0,0.4-0.2,0.4c-0.2-0.2-0.4-0.5-0.4-0.7
	c-0.1-0.2-0.1-0.4-0.1-0.7c-1.2,0-2.3-0.1-3.7-0.2c-1.3-0.2-2.8-0.2-4.5-0.2C206.6,74.2,206.8,75,206.8,75.4z M207.4,77.7
	c0-0.1,0.2-0.2,0.4-0.4c0.2,0,0.3-0.1,0.5-0.2c0-0.2-0.2-0.3-0.5-0.6s-0.7-0.3-0.9-0.3C206.8,77.3,207.1,77.7,207.4,77.7z
	 M229.6,78.7c-3.9-0.2-7.7-0.2-11.6,0.2c-3.8,0.3-7.2,0.3-10.2-0.2c0.2,1.2,0.8,1.7,1.7,1.5c0.9-0.2,1.7-0.2,2.4-0.2
	c3.2,0.2,6.7,0.4,10.6,0.4c3.8,0,7.1-0.2,9.9-0.4c-0.2-0.7-0.5-1-1-1C230.9,79,230.3,78.8,229.6,78.7z M208.7,77.2
	c4.2,0.4,8.3,0.7,12.4,0.7s7.9-0.3,11.2-1c-3.7-0.4-7.5-0.5-11.5-0.2c-4,0.2-8.2,0.2-12.6-0.2c0,0.2,0.1,0.4,0.2,0.5
	C208.7,77,208.7,77.1,208.7,77.2z M211,83.6c1.7,0,3.4,0.1,5.3,0.2c1.9,0.1,3.8,0.2,5.7,0.2c1.8,0.1,3.7,0,5.5-0.1
	c1.7-0.1,3.4-0.3,4.9-0.7c0.1-0.6,0-1-0.3-1.3c-0.3-0.2-0.7-0.4-1.2-0.5s-1.1-0.1-1.7-0.1c-0.7,0.1-1.2,0.1-1.7,0.1
	c-2.7,0.2-5.7,0.2-8.9,0.2c-3.2-0.1-6.2-0.2-8.9-0.2c0.2,0.4,0.4,0.8,0.6,1.3C210.3,83.1,210.6,83.5,211,83.6z M212.3,59.9
	c0.6,0.2,1.2,0.2,2,0.2s1.4-0.1,2.2-0.2c0.7-0.1,1.3-0.1,1.9-0.2c0.6-0.1,1,0,1.2,0.1c0.3-0.2,0.8-0.3,1.4-0.3
	c0.6,0.1,1.2,0.1,1.7,0.1c0.6,0,1.1,0,1.7-0.1c0.5-0.1,0.9-0.2,1.2-0.6c-2.1,0-4.3,0.1-6.7,0.2C216.6,59.3,214.4,59.5,212.3,59.9z
	 M216.9,85.1c-0.7,0-1.4,0.1-2.2,0.2c-0.8,0.1-1.6,0.3-2.2,0.7c0.4,0.9,1.2,1.4,2.2,1.3c1-0.1,2-0.2,2.9-0.4c2.5,0,4.9,0.1,7.2,0.3
	c2.3,0.2,4.9,0.1,7.7-0.3c0-0.2,0.1-0.4,0.2-0.6c0.2-0.2,0.1-0.4-0.2-0.8c-2.2,0-4.7-0.1-7.3-0.2C222.4,85.1,219.6,85.1,216.9,85.1z
	 M214.1,69.1c0.7,0.7,1.7,1,2.8,1c1.2-0.1,2.2-0.1,3.2-0.1h3.7c0.5,0,1.2,0.1,1.8,0.2c0.7,0.1,1.3,0.2,2,0.2s1.2-0.1,1.7-0.2
	c0.5-0.2,0.9-0.5,1.2-0.9C224.1,68.8,218.6,68.8,214.1,69.1z M214.6,72.7c3.4,0,6.4-0.1,9.1-0.2c2.7-0.2,5.4-0.4,8.2-0.7
	c-3-0.4-6-0.7-8.8-0.7c-2.8-0.1-5.7,0.1-8.5,0.3c0.2,0,0.2,0.2,0.2,0.5C214.7,72.2,214.6,72.5,214.6,72.7z M216.5,90
	c0.3,0.2,0.9,0.4,1.7,0.4c0.7,0.1,1.7,0.1,2.7,0.1c1,0,2-0.1,3.1-0.2c1-0.1,2-0.2,3-0.4c0.9,0,1.9,0,3,0.1c1,0.1,1.6-0.2,1.6-1
	c-2.5-0.4-5.2-0.6-8.1-0.5c-2.8,0.1-5.7,0.2-8.7,0.2c0,0.2,0.2,0.4,0.6,0.7C215.6,89.8,216.1,90,216.5,90z M216.9,91.4
	c0.2,0.9,0.8,1.5,1.7,1.7c0.8,0.2,1.5,0.2,1.9,0.2c1.8,0,3.7,0,5.7-0.1c1.9-0.1,3.7-0.2,5.2-0.4v-1.3H216.9z M227.4,94.5
	c-1.7-0.2-3.2-0.3-4.6-0.5s-2.7-0.2-3.6,0.2c0,1.2,0.4,1.7,1.3,1.7c0.8,0.1,1.7,0.1,2.7,0.1c1.7-0.2,3.2-0.3,4.6-0.2
	c1.4,0.2,2.5,0.1,3.2-0.4c0-0.4-0.2-0.7-0.4-0.9c-0.3-0.2-0.7-0.2-1-0.2c-0.4,0-0.7,0.1-1.2,0.2C228,94.5,227.6,94.5,227.4,94.5z
	 M230.5,63.6c-2,0.2-3.8,0.3-5.5,0.3c-1.7-0.1-3.2,0.2-4.6,0.6c1.8,0,3.5,0.1,5.1,0.2S229,65,231,65c0-0.2,0-0.6-0.1-0.9
	C231,63.8,230.8,63.6,230.5,63.6z M221.1,97.3c0.2,0.4,0.7,0.7,1.1,1c0.5,0.2,1,0.3,1.6,0.4c0.6,0.1,1.2,0.2,1.8,0.2
	c0.7,0.1,1.2,0.1,1.9,0.2c0.7,0,1.3,0.1,1.8,0.2c0.5,0.2,1.2,0.1,1.8-0.2c0-0.4,0.1-0.7,0.2-0.9c0.1-0.2,0.1-0.5-0.2-0.9
	c-1.7,0-3.3-0.1-5.1-0.2C224.2,97,222.6,97.1,221.1,97.3z M223.8,102.4c1.2,0.2,2.2,0.3,3.4,0.5s2.4,0.2,3.8-0.2v-2.2
	c-1.2,0.2-2.7,0.1-4.3-0.2c-1.7-0.3-3.2-0.4-4.3-0.2c0.2,0.4,0.6,0.8,0.9,1.2C223.5,101.5,223.8,101.9,223.8,102.4z M226.9,105.4
	c0.3-0.1,0.7-0.1,1.2-0.1c0.5,0.1,0.9,0.1,1.3,0.1c0.4,0,0.8-0.1,1.1-0.2c0.3-0.2,0.4-0.5,0.4-1c-0.9,0.2-1.7,0.3-2.2,0.4
	C228.2,104.8,227.5,105,226.9,105.4z M234.1,114.6c0-0.9-0.2-1.7-0.4-2.2c-0.3-0.6-0.4-1.3-0.4-2.2c-0.4,0.2-0.7,0.3-0.9,0.2
	c-0.2-0.2-0.5-0.2-0.9-0.2c-0.2,1.2,0.1,2.1,0.7,2.7C232.8,113.3,233.5,113.8,234.1,114.6z M231.5,51.4c0.4,0,0.7-0.3,0.7-1
	c0.1-0.7,0-1.1-0.2-1.3c-0.2,0.2-0.3,0.7-0.2,1.2C231.8,50.8,231.7,51.1,231.5,51.4z M236.5,82.3c0-3.5-0.1-6.9-0.2-10.2
	c-0.1-3.3-0.3-6.6-0.7-9.8h-0.9c-0.2,3.2-0.2,6.5,0.4,9.8C235.6,75.5,236,78.8,236.5,82.3z M235,110.9c0.2,0.7,0.4,1.4,0.5,2.2
	c0.1,0.7-0.2,1.2-0.9,1.4c0.2,0.7,0.4,1.2,0.7,1.7c0.3,0.5,0.8,0.8,1.5,1c-0.4-0.3-0.7-0.8-0.9-1.5c-0.2-0.7-0.2-1.3-0.2-2.2
	s0.1-1.5,0.2-2.2c0.1-0.7,0.2-1.3,0.2-1.7c-0.2,0.2-0.3,0.3-0.6,0.4C235.2,110.2,235,110.5,235,110.9z"/>
</svg>
