<?xml version="1.0" encoding="utf-8"?>
<!-- Generator: Adobe Illustrator 18.0.0, SVG Export Plug-In . SVG Version: 6.00 Build 0)  -->
<!DOCTYPE svg PUBLIC "-//W3C//DTD SVG 1.1//EN" "http://www.w3.org/Graphics/SVG/1.1/DTD/svg11.dtd">
<svg version="1.1" id="Artboard_2" xmlns="http://www.w3.org/2000/svg" xmlns:xlink="http://www.w3.org/1999/xlink" x="0px" y="0px"
	 viewBox="0 0 300 300" enable-background="new 0 0 300 300" xml:space="preserve">
<rect fill="#262E4F" width="300" height="300"/>
<path opacity="0.75" fill="#5A5DA8" enable-background="new    " d="M120.7,56.9C75.6,56.9,39,93.5,39,138.7
	c0,14.4,3.8,28,10.3,39.8l-13.7,35.6l30.9-14.1c14.4,12.8,33.4,20.6,54.2,20.6c45.2,0,81.8-36.6,81.8-81.8
	C202.6,93.5,165.9,56.9,120.7,56.9z"/>
<path opacity="0.75" fill="#5A5DA8" enable-background="new    " d="M264.4,236.6L250.7,201c6.6-11.8,10.3-25.3,10.3-39.8
	c0-45.2-36.6-81.8-81.8-81.8s-81.8,36.6-81.8,81.8s36.6,81.8,81.8,81.8c20.8,0,39.8-7.8,54.2-20.6L264.4,236.6z"/>
<path fill="#262E4F" d="M177.6,151.8c-0.8,1.4-3,4-3,4s0.6-3.1,0.9-4.6c0.4-3-0.1-5.9-1.1-8.7c-2.2-6.2-6.7-10.1-12.6-12.4
	c-2-0.8-4.1-1.6-6.2-3.1v50.2c0.1,6.2-2.7,10.5-8,13.2c-7.6,3.8-15.2,3.3-22.1-1.6c-3.5-2.5-5.5-6.1-5.5-10.5
	c0.1-3.9,1.9-7.2,4.9-9.6c4.7-3.8,10.1-5.1,16.1-4.2c2.6,0.4,4.9,1.2,7.4,2.5v-59.7c7.4-1.6,7.8,3.9,11.5,7.6
	c1.6,1.5,3.9,3.3,5.5,4.5c4,3.2,7.9,6.1,10.8,10.3c2.2,3.2,3.7,6.7,4.1,10.6C180.6,144.5,179.6,148.3,177.6,151.8z"/>
</svg>
